<?xml version="1.0" standalone="no"?>
<!DOCTYPE svg PUBLIC "-//W3C//DTD SVG 1.1//EN" "http://www.w3.org/Graphics/SVG/1.1/DTD/svg11.dtd" >
<svg>
<metadata>
Created by FontForge 20090622 at Fri Feb 22 20:52:26 2019
 By ffonts
\(c\)2015 Now Typeface is a trademark of Alfredo Marco Pradil. All rights reserved.
</metadata>
<defs>
<font id="Now-Bold" horiz-adv-x="0" >
  <font-face 
    font-family="Now"
    font-weight="700"
    font-stretch="normal"
    units-per-em="800"
    panose-1="0 0 8 0 0 0 0 0 0 0"
    ascent="640"
    descent="-160"
    x-height="400"
    cap-height="600"
    bbox="-623 -262 951 885"
    underline-thickness="50"
    underline-position="-50"
    stemh="117"
    stemv="131"
    unicode-range="U+0020-U+FB02"
  />
<missing-glyph horiz-adv-x="515" 
d="M71 0v600h372v-600h-372zM167 95h181v410h-181v-410z" />
    <glyph glyph-name="fi" unicode="fi" horiz-adv-x="551" 
d="M206 520v-120h95v-99h-95v-301h-128v301h-67v99h67v135c0 85 72 150 157 150c27 0 54 -5 64 -12v-100h-48c-27 0 -45 -20 -45 -53zM426 467c-38 0 -70 32 -70 70c0 39 32 70 70 70s70 -31 70 -70c0 -38 -32 -70 -70 -70zM362 0v400h127v-400h-127z" />
    <glyph glyph-name="fl" unicode="fl" horiz-adv-x="547" 
d="M206 520v-120h95v-99h-95v-301h-128v301h-67v99h67v135c0 85 72 150 157 150c27 0 54 -5 64 -12v-100h-48c-27 0 -45 -20 -45 -53zM360 685h128v-685h-128v685z" />
    <glyph glyph-name="f_t.liga" unicode="ft" horiz-adv-x="568" 
d="M549 301h-96v-143c0 -33 19 -54 46 -54h48v-99c-10 -7 -37 -13 -64 -13c-85 0 -157 66 -157 151v158h-120v-301h-128v301h-67v99h67v135c0 85 72 150 157 150c27 0 54 -5 64 -12v-100h-48c-27 0 -45 -20 -45 -53v-120h120v154h127v-154h96v-99z" />
    <glyph glyph-name=".notdef" horiz-adv-x="515" 
d="M71 0v600h372v-600h-372zM167 95h181v410h-181v-410z" />
    <glyph glyph-name="A" unicode="A" horiz-adv-x="554" 
d="M426 0l-37 113h-224l-37 -113h-141l216 600h148l216 -600h-141zM200 223h154l-77 238z" />
    <glyph glyph-name="Aacute" unicode="&#xc1;" horiz-adv-x="554" 
d="M438 800l-125 -149h-84l88 149h121zM426 0l-37 113h-224l-37 -113h-141l216 600h148l216 -600h-141zM200 223h154l-77 238z" />
    <glyph glyph-name="Abreve" unicode="&#x102;" horiz-adv-x="554" 
d="M278 644c-86 0 -146 46 -146 141h72c0 -35 29 -69 74 -69c46 0 74 34 74 69h72c0 -95 -59 -141 -146 -141zM426 0l-37 113h-224l-37 -113h-141l216 600h148l216 -600h-141zM200 223h154l-77 238z" />
    <glyph glyph-name="uni01CD" unicode="&#x1cd;" horiz-adv-x="554" 
d="M316 651h-77l-98 149h80l57 -78l57 78h80zM426 0l-37 113h-224l-37 -113h-141l216 600h148l216 -600h-141zM200 223h154l-77 238z" />
    <glyph glyph-name="Acircumflex" unicode="&#xc2;" horiz-adv-x="554" 
d="M278 729l-57 -78h-80l98 149h77l99 -149h-80zM426 0l-37 113h-224l-37 -113h-141l216 600h148l216 -600h-141zM200 223h154l-77 238z" />
    <glyph glyph-name="Adieresis" unicode="&#xc4;" horiz-adv-x="554" 
d="M194 670c-32 0 -60 28 -60 60c0 34 28 60 60 60c33 0 61 -26 61 -60c0 -32 -28 -60 -61 -60zM362 670c-32 0 -60 28 -60 60c0 34 28 60 60 60c34 0 60 -26 60 -60c0 -32 -26 -60 -60 -60zM426 0l-37 113h-224l-37 -113h-141l216 600h148l216 -600h-141zM200 223h154
l-77 238z" />
    <glyph glyph-name="Agrave" unicode="&#xc0;" horiz-adv-x="554" 
d="M327 651h-84l-125 149h121zM426 0l-37 113h-224l-37 -113h-141l216 600h148l216 -600h-141zM200 223h154l-77 238z" />
    <glyph glyph-name="Amacron" unicode="&#x100;" horiz-adv-x="554" 
d="M399 744v-80h-241v80h241zM426 0l-37 113h-224l-37 -113h-141l216 600h148l216 -600h-141zM200 223h154l-77 238z" />
    <glyph glyph-name="Aogonek" unicode="&#x104;" horiz-adv-x="554" 
d="M574 -102l40 -56c-33 -34 -81 -52 -127 -49c-65 5 -101 48 -101 101c0 50 35 83 81 106h-41l-37 113h-224l-37 -113h-141l216 600h148l216 -600c-61 -29 -103 -49 -103 -95c0 -33 17 -50 44 -50c26 0 51 16 66 43zM200 223h154l-77 238z" />
    <glyph glyph-name="Aring" unicode="&#xc5;" horiz-adv-x="554" 
d="M426 0l-37 113h-224l-37 -113h-141l214 595c-9 15 -15 33 -15 52c0 53 44 96 98 96c53 0 96 -43 96 -96c0 -24 -9 -46 -23 -64l210 -583h-141zM284 693c-26 0 -44 -22 -44 -46c0 -28 18 -46 44 -46c25 0 45 18 45 46c0 24 -20 46 -45 46zM200 223h154l-77 238z" />
    <glyph glyph-name="Atilde" unicode="&#xc3;" horiz-adv-x="554" 
d="M229 708c-17 0 -23 -23 -23 -54h-76c0 75 36 128 96 128c38 0 65 -22 83 -47c4 -8 9 -13 17 -13c18 0 23 21 23 54h76c0 -72 -32 -127 -97 -127c-33 0 -59 15 -81 47c-6 9 -11 12 -18 12zM426 0l-37 113h-224l-37 -113h-141l216 600h148l216 -600h-141zM200 223h154
l-77 238z" />
    <glyph glyph-name="AE" unicode="&#xc6;" horiz-adv-x="762" 
d="M721 487h-232v-136h198v-102h-198v-136h232v-113h-360v125h-180l-47 -125h-147l240 600h494v-113zM219 227h142v262h-43z" />
    <glyph glyph-name="B" unicode="B" horiz-adv-x="543" 
d="M420 304c56 -22 94 -67 94 -140c0 -106 -78 -164 -178 -164h-277v600h254c101 0 181 -61 181 -167c0 -63 -29 -105 -74 -129zM362 419c0 36 -29 64 -65 64h-106v-129h106c36 0 65 30 65 65zM317 117c37 0 65 28 65 64c0 35 -28 65 -65 65h-126v-129h126z" />
    <glyph glyph-name="C" unicode="C" horiz-adv-x="644" 
d="M345 -8c-170 0 -308 138 -308 308s138 308 308 308c119 0 222 -67 273 -165l-114 -59c-29 57 -88 95 -159 95c-101 0 -178 -78 -178 -179s77 -179 178 -179c71 0 130 38 159 95l114 -59c-51 -98 -154 -165 -273 -165z" />
    <glyph glyph-name="Cacute" unicode="&#x106;" horiz-adv-x="644" 
d="M296 651l88 149h121l-125 -149h-84zM345 -8c-170 0 -308 138 -308 308s138 308 308 308c119 0 222 -67 273 -165l-114 -59c-29 57 -88 95 -159 95c-101 0 -178 -78 -178 -179s77 -179 178 -179c71 0 130 38 159 95l114 -59c-51 -98 -154 -165 -273 -165z" />
    <glyph glyph-name="Ccaron" unicode="&#x10c;" horiz-adv-x="644" 
d="M306 651l-98 149h80l57 -78l57 78h80l-99 -149h-77zM345 -8c-170 0 -308 138 -308 308s138 308 308 308c119 0 222 -67 273 -165l-114 -59c-29 57 -88 95 -159 95c-101 0 -178 -78 -178 -179s77 -179 178 -179c71 0 130 38 159 95l114 -59c-51 -98 -154 -165 -273 -165z
" />
    <glyph glyph-name="Ccedilla" unicode="&#xc7;" horiz-adv-x="644" 
d="M345 121c71 0 130 38 159 95l114 -59c-47 -91 -139 -155 -247 -164l-23 -39c51 9 92 -24 92 -73c0 -50 -39 -89 -89 -89c-41 0 -82 28 -94 62l56 18c7 -12 24 -22 38 -22c17 0 31 14 31 31c0 28 -28 37 -62 19l-45 26l38 68c-155 16 -276 147 -276 306
c0 170 138 308 308 308c119 0 222 -67 273 -165l-114 -59c-29 57 -88 95 -159 95c-101 0 -178 -78 -178 -179s77 -179 178 -179z" />
    <glyph glyph-name="Cdotaccent" unicode="&#x10a;" horiz-adv-x="644" 
d="M345 651c-38 0 -70 32 -70 70c0 39 32 70 70 70c39 0 71 -31 71 -70c0 -38 -32 -70 -71 -70zM345 -8c-170 0 -308 138 -308 308s138 308 308 308c119 0 222 -67 273 -165l-114 -59c-29 57 -88 95 -159 95c-101 0 -178 -78 -178 -179s77 -179 178 -179c71 0 130 38 159 95
l114 -59c-51 -98 -154 -165 -273 -165z" />
    <glyph glyph-name="D" unicode="D" horiz-adv-x="594" 
d="M59 0v600h198c165 0 300 -134 300 -300s-135 -300 -300 -300h-198zM191 117h65c95 0 169 79 169 183s-74 183 -169 183h-65v-366z" />
    <glyph glyph-name="Eth" unicode="&#xd0;" horiz-adv-x="594" 
d="M257 600c165 0 300 -134 300 -300s-135 -300 -300 -300h-198v266h-56v68h56v266h198zM256 117c95 0 169 79 169 183s-74 183 -169 183h-65v-149h92v-68h-92v-149h65z" />
    <glyph glyph-name="Dcaron" unicode="&#x10e;" horiz-adv-x="594" 
d="M217 651l-98 149h80l57 -78l57 78h80l-99 -149h-77zM59 0v600h198c165 0 300 -134 300 -300s-135 -300 -300 -300h-198zM191 117h65c95 0 169 79 169 183s-74 183 -169 183h-65v-366z" />
    <glyph glyph-name="Dcroat" unicode="&#x110;" horiz-adv-x="594" 
d="M257 600c165 0 300 -134 300 -300s-135 -300 -300 -300h-198v266h-56v68h56v266h198zM256 117c95 0 169 79 169 183s-74 183 -169 183h-65v-149h92v-68h-92v-149h65z" />
    <glyph glyph-name="E" unicode="E" horiz-adv-x="466" 
d="M425 484h-229v-126h196v-116h-196v-126h229v-116h-361v600h361v-116z" />
    <glyph glyph-name="Eacute" unicode="&#xc9;" horiz-adv-x="466" 
d="M405 800l-125 -149h-84l88 149h121zM425 484h-229v-126h196v-116h-196v-126h229v-116h-361v600h361v-116z" />
    <glyph glyph-name="Ecaron" unicode="&#x11a;" horiz-adv-x="466" 
d="M283 651h-77l-98 149h80l57 -78l57 78h80zM425 484h-229v-126h196v-116h-196v-126h229v-116h-361v600h361v-116z" />
    <glyph glyph-name="Ecircumflex" unicode="&#xca;" horiz-adv-x="466" 
d="M245 729l-57 -78h-80l98 149h77l99 -149h-80zM425 484h-229v-126h196v-116h-196v-126h229v-116h-361v600h361v-116z" />
    <glyph glyph-name="Edieresis" unicode="&#xcb;" horiz-adv-x="466" 
d="M161 670c-32 0 -60 28 -60 60c0 34 28 60 60 60c33 0 61 -26 61 -60c0 -32 -28 -60 -61 -60zM329 670c-32 0 -60 28 -60 60c0 34 28 60 60 60c34 0 60 -26 60 -60c0 -32 -26 -60 -60 -60zM425 484h-229v-126h196v-116h-196v-126h229v-116h-361v600h361v-116z" />
    <glyph glyph-name="Edotaccent" unicode="&#x116;" horiz-adv-x="466" 
d="M245 651c-38 0 -70 32 -70 70c0 39 32 70 70 70c39 0 71 -31 71 -70c0 -38 -32 -70 -71 -70zM425 484h-229v-126h196v-116h-196v-126h229v-116h-361v600h361v-116z" />
    <glyph glyph-name="Egrave" unicode="&#xc8;" horiz-adv-x="466" 
d="M294 651h-84l-125 149h121zM425 484h-229v-126h196v-116h-196v-126h229v-116h-361v600h361v-116z" />
    <glyph glyph-name="Emacron" unicode="&#x112;" horiz-adv-x="466" 
d="M366 744v-80h-241v80h241zM425 484h-229v-126h196v-116h-196v-126h229v-116h-361v600h361v-116z" />
    <glyph glyph-name="Eogonek" unicode="&#x118;" horiz-adv-x="466" 
d="M432 -102l40 -56c-33 -34 -81 -52 -127 -49c-65 5 -101 48 -101 101c0 50 35 83 81 106h-261v600h361v-116h-229v-126h196v-116h-196v-126h229v-116c-61 -29 -103 -49 -103 -95c0 -33 17 -50 44 -50c26 0 51 16 66 43z" />
    <glyph glyph-name="F" unicode="F" horiz-adv-x="435" 
d="M425 484h-229v-126h196v-116h-196v-242h-132v600h361v-116z" />
    <glyph glyph-name="G" unicode="G" horiz-adv-x="692" 
d="M345 329h309v-29c0 -170 -138 -308 -308 -308c-171 0 -308 138 -308 308s137 308 308 308c118 0 221 -67 273 -165l-114 -59c-30 57 -88 95 -159 95c-101 0 -179 -78 -179 -179s78 -179 179 -179c74 0 136 42 164 105h-165v103z" />
    <glyph glyph-name="Gbreve" unicode="&#x11e;" horiz-adv-x="692" 
d="M346 644c-86 0 -146 46 -146 141h72c0 -35 29 -69 74 -69c46 0 74 34 74 69h72c0 -95 -59 -141 -146 -141zM345 329h309v-29c0 -170 -138 -308 -308 -308c-171 0 -308 138 -308 308s137 308 308 308c118 0 221 -67 273 -165l-114 -59c-30 57 -88 95 -159 95
c-101 0 -179 -78 -179 -179s78 -179 179 -179c74 0 136 42 164 105h-165v103z" />
    <glyph glyph-name="Gcommaaccent" unicode="&#x122;" horiz-adv-x="692" 
d="M345 329h309v-29c0 -170 -138 -308 -308 -308c-171 0 -308 138 -308 308s137 308 308 308c118 0 221 -67 273 -165l-114 -59c-30 57 -88 95 -159 95c-101 0 -179 -78 -179 -179s78 -179 179 -179c74 0 136 42 164 105h-165v103zM235 -200l56 152h110l-105 -152h-61z" />
    <glyph glyph-name="Gdotaccent" unicode="&#x120;" horiz-adv-x="692" 
d="M346 651c-38 0 -70 32 -70 70c0 39 32 70 70 70c39 0 71 -31 71 -70c0 -38 -32 -70 -71 -70zM345 329h309v-29c0 -170 -138 -308 -308 -308c-171 0 -308 138 -308 308s137 308 308 308c118 0 221 -67 273 -165l-114 -59c-30 57 -88 95 -159 95c-101 0 -179 -78 -179 -179
s78 -179 179 -179c74 0 136 42 164 105h-165v103z" />
    <glyph glyph-name="H" unicode="H" horiz-adv-x="626" 
d="M435 600h131v-600h-131v242h-244v-242h-132v600h132v-241h244v241z" />
    <glyph glyph-name="Hbar" unicode="&#x126;" horiz-adv-x="626" 
d="M613 499v-52h-47v-447h-131v242h-244v-242h-132v447h-45v52h45v101h132v-101h244v101h131v-101h47zM435 359v88h-244v-88h244z" />
    <glyph glyph-name="I" unicode="I" horiz-adv-x="259" 
d="M64 0v600h132v-600h-132z" />
    <glyph glyph-name="Iacute" unicode="&#xcd;" horiz-adv-x="259" 
d="M80 651l88 149h121l-125 -149h-84zM64 0v600h132v-600h-132z" />
    <glyph glyph-name="uni01CF" unicode="&#x1cf;" horiz-adv-x="259" 
d="M90 651l-98 149h80l57 -78l57 78h80l-99 -149h-77zM64 0v600h132v-600h-132z" />
    <glyph glyph-name="Icircumflex" unicode="&#xce;" horiz-adv-x="259" 
d="M72 651h-80l98 149h77l99 -149h-80l-57 78zM64 0v600h132v-600h-132z" />
    <glyph glyph-name="Idieresis" unicode="&#xcf;" horiz-adv-x="259" 
d="M45 670c-32 0 -60 28 -60 60c0 34 28 60 60 60c33 0 61 -26 61 -60c0 -32 -28 -60 -61 -60zM213 670c-32 0 -60 28 -60 60c0 34 28 60 60 60c34 0 60 -26 60 -60c0 -32 -26 -60 -60 -60zM64 0v600h132v-600h-132z" />
    <glyph glyph-name="Idotaccent" unicode="&#x130;" horiz-adv-x="259" 
d="M129 651c-38 0 -70 32 -70 70c0 39 32 70 70 70c39 0 71 -31 71 -70c0 -38 -32 -70 -71 -70zM64 0v600h132v-600h-132z" />
    <glyph glyph-name="Igrave" unicode="&#xcc;" horiz-adv-x="259" 
d="M178 651h-84l-125 149h121zM64 0v600h132v-600h-132z" />
    <glyph glyph-name="Imacron" unicode="&#x12a;" horiz-adv-x="259" 
d="M9 664v80h241v-80h-241zM64 0v600h132v-600h-132z" />
    <glyph glyph-name="Iogonek" unicode="&#x12e;" horiz-adv-x="259" 
d="M203 -102l40 -56c-33 -34 -81 -52 -127 -49c-65 5 -101 48 -101 101c0 50 35 83 81 106h-32v600h132v-600c-61 -29 -103 -49 -103 -95c0 -33 17 -50 44 -50c26 0 51 16 66 43z" />
    <glyph glyph-name="J" unicode="J" horiz-adv-x="455" 
d="M405 600v-446c0 -99 -68 -162 -191 -162c-110 0 -175 50 -188 131l130 38c5 -31 28 -53 58 -53c33 0 59 27 59 63v312h-197v117h329z" />
    <glyph glyph-name="K" unicode="K" horiz-adv-x="589" 
d="M434 0l-224 274h-19v-274h-132v600h132v-212h23l196 212h170l-259 -267l289 -333h-176z" />
    <glyph glyph-name="Kcommaaccent" unicode="&#x136;" horiz-adv-x="589" 
d="M321 333l289 -333h-176l-224 274h-19v-274h-132v600h132v-212h23l196 212h170zM189 -200l56 152h110l-105 -152h-61z" />
    <glyph glyph-name="L" unicode="L" horiz-adv-x="392" 
d="M191 117h199v-117h-331v600h132v-483z" />
    <glyph glyph-name="Lacute" unicode="&#x139;" horiz-adv-x="392" 
d="M285 800l-125 -149h-84l88 149h121zM191 117h199v-117h-331v600h132v-483z" />
    <glyph glyph-name="Lcaron" unicode="&#x13d;" horiz-adv-x="431" 
d="M191 600v-483h199v-117h-331v600h132zM445 600l-108 -242h-66l68 242h106z" />
    <glyph glyph-name="Lcommaaccent" unicode="&#x13b;" horiz-adv-x="392" 
d="M191 117h199v-117h-331v600h132v-483zM114 -200l56 152h110l-105 -152h-61z" />
    <glyph glyph-name="Lslash" unicode="&#x141;" horiz-adv-x="392" 
d="M191 117h199v-117h-331v182l-51 -54l-52 47l103 108v317h132v-178l48 50l54 -45l-102 -107v-203z" />
    <glyph glyph-name="M" unicode="M" horiz-adv-x="783" 
d="M582 600h142v-600h-132v357l-163 -357h-76l-162 358v-358h-132v600h143l189 -415z" />
    <glyph glyph-name="N" unicode="N" horiz-adv-x="681" 
d="M490 600h131v-600h-136l-294 398v-398h-132v600h136l295 -397v397z" />
    <glyph glyph-name="Nacute" unicode="&#x143;" horiz-adv-x="681" 
d="M503 800l-125 -149h-84l88 149h121zM490 600h131v-600h-136l-294 398v-398h-132v600h136l295 -397v397z" />
    <glyph glyph-name="Ncaron" unicode="&#x147;" horiz-adv-x="681" 
d="M381 651h-77l-98 149h80l57 -78l57 78h80zM490 600h131v-600h-136l-294 398v-398h-132v600h136l295 -397v397z" />
    <glyph glyph-name="Ncommaaccent" unicode="&#x145;" horiz-adv-x="681" 
d="M490 600h131v-600h-136l-294 398v-398h-132v600h136l295 -397v397zM227 -200l56 152h110l-105 -152h-61z" />
    <glyph glyph-name="Eng" unicode="&#x14a;" horiz-adv-x="681" 
d="M490 600h131v-600v-65c0 -117 -85 -154 -196 -154v86c34 1 60 5 60 74v59l-294 398v-398h-132v600h136l295 -397v397z" />
    <glyph glyph-name="Ntilde" unicode="&#xd1;" horiz-adv-x="681" 
d="M294 708c-17 0 -23 -23 -23 -54h-76c0 75 36 128 96 128c38 0 65 -22 83 -47c4 -8 9 -13 17 -13c18 0 23 21 23 54h76c0 -72 -32 -127 -97 -127c-33 0 -59 15 -81 47c-6 9 -11 12 -18 12zM490 600h131v-600h-136l-294 398v-398h-132v600h136l295 -397v397z" />
    <glyph glyph-name="O" unicode="O" horiz-adv-x="691" 
d="M345 -8c-170 0 -308 138 -308 308s138 308 308 308c171 0 308 -138 308 -308s-137 -308 -308 -308zM345 121c102 0 179 78 179 179s-77 179 -179 179c-101 0 -178 -78 -178 -179s77 -179 178 -179z" />
    <glyph glyph-name="Oacute" unicode="&#xd3;" horiz-adv-x="691" 
d="M296 651l88 149h121l-125 -149h-84zM345 -8c-170 0 -308 138 -308 308s138 308 308 308c171 0 308 -138 308 -308s-137 -308 -308 -308zM345 121c102 0 179 78 179 179s-77 179 -179 179c-101 0 -178 -78 -178 -179s77 -179 178 -179z" />
    <glyph glyph-name="uni01D1" unicode="&#x1d1;" horiz-adv-x="691" 
d="M306 651l-98 149h80l57 -78l57 78h80l-99 -149h-77zM345 -8c-170 0 -308 138 -308 308s138 308 308 308c171 0 308 -138 308 -308s-137 -308 -308 -308zM345 121c102 0 179 78 179 179s-77 179 -179 179c-101 0 -178 -78 -178 -179s77 -179 178 -179z" />
    <glyph glyph-name="Ocircumflex" unicode="&#xd4;" horiz-adv-x="691" 
d="M288 651h-80l98 149h77l99 -149h-80l-57 78zM345 -8c-170 0 -308 138 -308 308s138 308 308 308c171 0 308 -138 308 -308s-137 -308 -308 -308zM345 121c102 0 179 78 179 179s-77 179 -179 179c-101 0 -178 -78 -178 -179s77 -179 178 -179z" />
    <glyph glyph-name="Odieresis" unicode="&#xd6;" horiz-adv-x="691" 
d="M261 670c-32 0 -60 28 -60 60c0 34 28 60 60 60c33 0 61 -26 61 -60c0 -32 -28 -60 -61 -60zM429 670c-32 0 -60 28 -60 60c0 34 28 60 60 60c34 0 60 -26 60 -60c0 -32 -26 -60 -60 -60zM345 -8c-170 0 -308 138 -308 308s138 308 308 308c171 0 308 -138 308 -308
s-137 -308 -308 -308zM345 121c102 0 179 78 179 179s-77 179 -179 179c-101 0 -178 -78 -178 -179s77 -179 178 -179z" />
    <glyph glyph-name="Ograve" unicode="&#xd2;" horiz-adv-x="691" 
d="M394 651h-84l-125 149h121zM345 -8c-170 0 -308 138 -308 308s138 308 308 308c171 0 308 -138 308 -308s-137 -308 -308 -308zM345 121c102 0 179 78 179 179s-77 179 -179 179c-101 0 -178 -78 -178 -179s77 -179 178 -179z" />
    <glyph glyph-name="Ohungarumlaut" unicode="&#x150;" horiz-adv-x="691" 
d="M220 651l87 149h120l-124 -149h-83zM381 651l87 149h120l-124 -149h-83zM345 -8c-170 0 -308 138 -308 308s138 308 308 308c171 0 308 -138 308 -308s-137 -308 -308 -308zM345 121c102 0 179 78 179 179s-77 179 -179 179c-101 0 -178 -78 -178 -179s77 -179 178 -179z
" />
    <glyph glyph-name="Omacron" unicode="&#x14c;" horiz-adv-x="691" 
d="M225 664v80h241v-80h-241zM345 -8c-170 0 -308 138 -308 308s138 308 308 308c171 0 308 -138 308 -308s-137 -308 -308 -308zM345 121c102 0 179 78 179 179s-77 179 -179 179c-101 0 -178 -78 -178 -179s77 -179 178 -179z" />
    <glyph glyph-name="Oslash" unicode="&#xd8;" horiz-adv-x="691" 
d="M556 525c60 -57 97 -136 97 -225c0 -170 -137 -308 -308 -308c-49 0 -96 12 -138 32l-50 -72l-78 46l54 78c-59 56 -96 136 -96 224c0 170 138 308 308 308c49 0 95 -11 136 -32l51 73l78 -47zM167 300c0 -45 15 -85 41 -116l199 285c-19 6 -40 10 -62 10
c-101 0 -178 -78 -178 -179zM345 121c102 0 179 78 179 179c0 46 -16 87 -42 118l-200 -286c20 -7 41 -11 63 -11z" />
    <glyph glyph-name="Otilde" unicode="&#xd5;" horiz-adv-x="691" 
d="M395 649c-33 0 -59 15 -81 47c-6 9 -11 12 -18 12c-17 0 -23 -23 -23 -54h-76c0 75 36 128 96 128c38 0 65 -22 83 -47c4 -8 9 -13 17 -13c18 0 23 21 23 54h76c0 -72 -32 -127 -97 -127zM345 -8c-170 0 -308 138 -308 308s138 308 308 308c171 0 308 -138 308 -308
s-137 -308 -308 -308zM345 121c102 0 179 78 179 179s-77 179 -179 179c-101 0 -178 -78 -178 -179s77 -179 178 -179z" />
    <glyph glyph-name="OE" unicode="&#x152;" horiz-adv-x="826" 
d="M785 487h-220v-130h186v-114h-186v-130h220v-113h-339v8c-32 -10 -65 -16 -101 -16c-170 0 -308 138 -308 308s138 308 308 308c36 0 69 -6 101 -16v8h339v-113zM345 119c38 0 73 12 101 31v300c-28 19 -63 31 -101 31c-101 0 -180 -80 -180 -181s79 -181 180 -181z" />
    <glyph glyph-name="P" unicode="P" horiz-adv-x="497" 
d="M314 600c101 0 179 -81 179 -181c0 -101 -78 -176 -179 -176h-123v-243h-132v600h255zM293 352c42 0 74 26 74 66c0 39 -32 66 -74 66h-102v-132h102z" />
    <glyph glyph-name="Thorn" unicode="&#xde;" horiz-adv-x="515" 
d="M318 512c99 0 178 -80 178 -182c0 -97 -79 -174 -178 -174h-126v-156h-127v512v88h127v-88h126zM313 269c37 0 66 29 66 65c0 38 -29 65 -66 65h-121v-130h121z" />
    <glyph glyph-name="Q" unicode="Q" horiz-adv-x="692" 
d="M676 95v-95h-261c-22 -5 -46 -8 -70 -8c-170 0 -308 138 -308 308s138 308 308 308c171 0 308 -138 308 -308c0 -96 -44 -182 -112 -238l75 33h60zM167 300c0 -101 77 -179 178 -179c102 0 179 78 179 179s-77 179 -179 179c-101 0 -178 -78 -178 -179z" />
    <glyph glyph-name="R" unicode="R" horiz-adv-x="535" 
d="M372 247l168 -247h-148l-148 232h-53v-232h-132v600h255c103 0 179 -82 179 -184c0 -82 -50 -148 -121 -169zM294 341c42 0 73 29 73 71c0 41 -31 71 -73 71h-103v-142h103z" />
    <glyph glyph-name="Racute" unicode="&#x154;" horiz-adv-x="535" 
d="M432 800l-125 -149h-84l88 149h121zM372 247l168 -247h-148l-148 232h-53v-232h-132v600h255c103 0 179 -82 179 -184c0 -82 -50 -148 -121 -169zM294 341c42 0 73 29 73 71c0 41 -31 71 -73 71h-103v-142h103z" />
    <glyph glyph-name="Rcaron" unicode="&#x158;" horiz-adv-x="535" 
d="M310 651h-77l-98 149h80l57 -78l57 78h80zM372 247l168 -247h-148l-148 232h-53v-232h-132v600h255c103 0 179 -82 179 -184c0 -82 -50 -148 -121 -169zM294 341c42 0 73 29 73 71c0 41 -31 71 -73 71h-103v-142h103z" />
    <glyph glyph-name="Rcommaaccent" unicode="&#x156;" horiz-adv-x="535" 
d="M372 247l168 -247h-148l-148 232h-53v-232h-132v600h255c103 0 179 -82 179 -184c0 -82 -50 -148 -121 -169zM294 341c42 0 73 29 73 71c0 41 -31 71 -73 71h-103v-142h103zM161 -200l56 152h110l-105 -152h-61z" />
    <glyph glyph-name="S" unicode="S" horiz-adv-x="474" 
d="M244 -8c-105 0 -189 59 -228 134l109 68c22 -47 65 -78 120 -78c46 0 74 22 74 55c0 105 -277 56 -277 260c0 120 97 177 192 177c74 0 141 -34 185 -85l-88 -84c-30 33 -64 52 -98 52c-32 0 -58 -16 -58 -50c0 -104 276 -49 276 -271c0 -112 -95 -178 -207 -178z" />
    <glyph glyph-name="Sacute" unicode="&#x15a;" horiz-adv-x="474" 
d="M187 651l88 149h121l-125 -149h-84zM244 -8c-105 0 -189 59 -228 134l109 68c22 -47 65 -78 120 -78c46 0 74 22 74 55c0 105 -277 56 -277 260c0 120 97 177 192 177c74 0 141 -34 185 -85l-88 -84c-30 33 -64 52 -98 52c-32 0 -58 -16 -58 -50c0 -104 276 -49 276 -271
c0 -112 -95 -178 -207 -178z" />
    <glyph glyph-name="Scaron" unicode="&#x160;" horiz-adv-x="474" 
d="M197 651l-98 149h80l57 -78l57 78h80l-99 -149h-77zM244 -8c-105 0 -189 59 -228 134l109 68c22 -47 65 -78 120 -78c46 0 74 22 74 55c0 105 -277 56 -277 260c0 120 97 177 192 177c74 0 141 -34 185 -85l-88 -84c-30 33 -64 52 -98 52c-32 0 -58 -16 -58 -50
c0 -104 276 -49 276 -271c0 -112 -95 -178 -207 -178z" />
    <glyph glyph-name="Scedilla" unicode="&#x15e;" horiz-adv-x="474" 
d="M451 170c0 -104 -81 -168 -182 -177l-24 -40c51 9 92 -24 92 -73c0 -50 -39 -89 -89 -89c-41 0 -82 28 -94 62l56 18c7 -12 24 -22 38 -22c17 0 31 14 31 31c0 28 -28 37 -62 19l-45 26l38 69c-89 11 -159 65 -194 132l109 68c22 -47 65 -78 120 -78c46 0 74 22 74 55
c0 105 -277 56 -277 260c0 120 97 177 192 177c74 0 141 -34 185 -85l-88 -84c-30 33 -64 52 -98 52c-32 0 -58 -16 -58 -50c0 -104 276 -49 276 -271z" />
    <glyph glyph-name="Scommaaccent" unicode="&#x218;" horiz-adv-x="474" 
d="M244 -8c-105 0 -189 59 -228 134l109 68c22 -47 65 -78 120 -78c46 0 74 22 74 55c0 105 -277 56 -277 260c0 120 97 177 192 177c74 0 141 -34 185 -85l-88 -84c-30 33 -64 52 -98 52c-32 0 -58 -16 -58 -50c0 -104 276 -49 276 -271c0 -112 -95 -178 -207 -178z
M192 -201h-61l56 152h110z" />
    <glyph glyph-name="T" unicode="T" horiz-adv-x="424" 
d="M429 600v-117h-151v-483h-131v483h-152v117h434z" />
    <glyph glyph-name="Tbar" unicode="&#x166;" horiz-adv-x="424" 
d="M429 483h-151v-149h74v-68h-74v-266h-131v266h-75v68h75v149h-152v117h434v-117z" />
    <glyph glyph-name="Tcaron" unicode="&#x164;" horiz-adv-x="424" 
d="M250 651h-77l-98 149h80l57 -78l57 78h80zM429 600v-117h-151v-483h-131v483h-152v117h434z" />
    <glyph glyph-name="uni0162" unicode="&#x162;" horiz-adv-x="424" 
d="M278 0h-36l-27 -46c51 9 92 -24 92 -73c0 -50 -39 -89 -89 -89c-41 0 -82 28 -94 62l56 18c7 -12 24 -22 38 -22c17 0 31 14 31 31c0 28 -28 37 -62 19l-45 26l41 74h-36v483h-152v117h434v-117h-151v-483z" />
    <glyph glyph-name="uni021A" unicode="&#x21a;" horiz-adv-x="424" 
d="M429 600v-117h-151v-483h-131v483h-152v117h434zM101 -200l56 152h110l-105 -152h-61z" />
    <glyph glyph-name="U" unicode="U" horiz-adv-x="611" 
d="M305 -8c-140 0 -249 87 -249 200v408h132v-383c0 -61 51 -108 117 -108c67 0 118 47 118 108v383h132v-408c0 -113 -108 -200 -250 -200z" />
    <glyph glyph-name="Uacute" unicode="&#xda;" horiz-adv-x="611" 
d="M256 651l88 149h121l-125 -149h-84zM305 -8c-140 0 -249 87 -249 200v408h132v-383c0 -61 51 -108 117 -108c67 0 118 47 118 108v383h132v-408c0 -113 -108 -200 -250 -200z" />
    <glyph glyph-name="uni01D3" unicode="&#x1d3;" horiz-adv-x="611" 
d="M266 651l-98 149h80l57 -78l57 78h80l-99 -149h-77zM305 -8c-140 0 -249 87 -249 200v408h132v-383c0 -61 51 -108 117 -108c67 0 118 47 118 108v383h132v-408c0 -113 -108 -200 -250 -200z" />
    <glyph glyph-name="Ucircumflex" unicode="&#xdb;" horiz-adv-x="611" 
d="M248 651h-80l98 149h77l99 -149h-80l-57 78zM305 -8c-140 0 -249 87 -249 200v408h132v-383c0 -61 51 -108 117 -108c67 0 118 47 118 108v383h132v-408c0 -113 -108 -200 -250 -200z" />
    <glyph glyph-name="Udieresis" unicode="&#xdc;" horiz-adv-x="611" 
d="M221 670c-32 0 -60 28 -60 60c0 34 28 60 60 60c33 0 61 -26 61 -60c0 -32 -28 -60 -61 -60zM389 670c-32 0 -60 28 -60 60c0 34 28 60 60 60c34 0 60 -26 60 -60c0 -32 -26 -60 -60 -60zM305 -8c-140 0 -249 87 -249 200v408h132v-383c0 -61 51 -108 117 -108
c67 0 118 47 118 108v383h132v-408c0 -113 -108 -200 -250 -200z" />
    <glyph glyph-name="Ugrave" unicode="&#xd9;" horiz-adv-x="611" 
d="M354 651h-84l-125 149h121zM305 -8c-140 0 -249 87 -249 200v408h132v-383c0 -61 51 -108 117 -108c67 0 118 47 118 108v383h132v-408c0 -113 -108 -200 -250 -200z" />
    <glyph glyph-name="Uhungarumlaut" unicode="&#x170;" horiz-adv-x="611" 
d="M180 651l87 149h120l-124 -149h-83zM341 651l87 149h120l-124 -149h-83zM305 -8c-140 0 -249 87 -249 200v408h132v-383c0 -61 51 -108 117 -108c67 0 118 47 118 108v383h132v-408c0 -113 -108 -200 -250 -200z" />
    <glyph glyph-name="Umacron" unicode="&#x16a;" horiz-adv-x="611" 
d="M185 664v80h241v-80h-241zM305 -8c-140 0 -249 87 -249 200v408h132v-383c0 -61 51 -108 117 -108c67 0 118 47 118 108v383h132v-408c0 -113 -108 -200 -250 -200z" />
    <glyph glyph-name="Uogonek" unicode="&#x172;" horiz-adv-x="611" 
d="M423 600h132v-408c0 -85 -60 -154 -150 -184c-37 -20 -60 -40 -60 -74c0 -33 17 -50 44 -50c26 0 51 16 66 43l40 -56c-33 -34 -81 -52 -127 -49c-65 5 -101 48 -101 101c0 28 11 51 29 69c-136 4 -240 89 -240 200v408h132v-383c0 -61 51 -108 117 -108
c67 0 118 47 118 108v383z" />
    <glyph glyph-name="Uring" unicode="&#x16e;" horiz-adv-x="611" 
d="M305 632c-54 0 -98 44 -98 98c0 53 44 96 98 96c53 0 96 -43 96 -96c0 -54 -43 -98 -96 -98zM305 684c25 0 45 18 45 46c0 24 -20 46 -45 46c-26 0 -44 -22 -44 -46c0 -28 18 -46 44 -46zM305 -8c-140 0 -249 87 -249 200v408h132v-383c0 -61 51 -108 117 -108
c67 0 118 47 118 108v383h132v-408c0 -113 -108 -200 -250 -200z" />
    <glyph glyph-name="V" unicode="V" horiz-adv-x="554" 
d="M420 600h147l-216 -600h-148l-216 600h147l143 -429z" />
    <glyph glyph-name="W" unicode="W" horiz-adv-x="822" 
d="M697 600h139l-164 -600h-152l-109 422l-109 -422h-152l-164 600h139l108 -418l114 418h110h18l115 -416z" />
    <glyph glyph-name="Wacute" unicode="&#x1e82;" horiz-adv-x="822" 
d="M572 800l-125 -149h-84l88 149h121zM697 600h139l-164 -600h-152l-109 422l-109 -422h-152l-164 600h139l108 -418l114 418h110h18l115 -416z" />
    <glyph glyph-name="Wcircumflex" unicode="&#x174;" horiz-adv-x="822" 
d="M412 729l-57 -78h-80l98 149h77l99 -149h-80zM697 600h139l-164 -600h-152l-109 422l-109 -422h-152l-164 600h139l108 -418l114 418h110h18l115 -416z" />
    <glyph glyph-name="Wdieresis" unicode="&#x1e84;" horiz-adv-x="822" 
d="M328 670c-32 0 -60 28 -60 60c0 34 28 60 60 60c33 0 61 -26 61 -60c0 -32 -28 -60 -61 -60zM496 670c-32 0 -60 28 -60 60c0 34 28 60 60 60c34 0 60 -26 60 -60c0 -32 -26 -60 -60 -60zM697 600h139l-164 -600h-152l-109 422l-109 -422h-152l-164 600h139l108 -418
l114 418h110h18l115 -416z" />
    <glyph glyph-name="Wgrave" unicode="&#x1e80;" horiz-adv-x="822" 
d="M461 651h-84l-125 149h121zM697 600h139l-164 -600h-152l-109 422l-109 -422h-152l-164 600h139l108 -418l114 418h110h18l115 -416z" />
    <glyph glyph-name="X" unicode="X" horiz-adv-x="532" 
d="M544 0h-151l-127 201l-127 -201h-152l208 309l-196 291h151l116 -182l116 182h151l-196 -290z" />
    <glyph glyph-name="Y" unicode="Y" horiz-adv-x="527" 
d="M539 600l-209 -317v-283h-132v282l-211 318h149l128 -203l128 203h147z" />
    <glyph glyph-name="Yacute" unicode="&#xdd;" horiz-adv-x="527" 
d="M424 800l-125 -149h-84l88 149h121zM539 600l-209 -317v-283h-132v282l-211 318h149l128 -203l128 203h147z" />
    <glyph glyph-name="Ycircumflex" unicode="&#x176;" horiz-adv-x="527" 
d="M264 729l-57 -78h-80l98 149h77l99 -149h-80zM539 600l-209 -317v-283h-132v282l-211 318h149l128 -203l128 203h147z" />
    <glyph glyph-name="Ydieresis" unicode="&#x178;" horiz-adv-x="527" 
d="M180 670c-32 0 -60 28 -60 60c0 34 28 60 60 60c33 0 61 -26 61 -60c0 -32 -28 -60 -61 -60zM348 670c-32 0 -60 28 -60 60c0 34 28 60 60 60c34 0 60 -26 60 -60c0 -32 -26 -60 -60 -60zM539 600l-209 -317v-283h-132v282l-211 318h149l128 -203l128 203h147z" />
    <glyph glyph-name="Ygrave" unicode="&#x1ef2;" horiz-adv-x="527" 
d="M313 651h-84l-125 149h121zM539 600l-209 -317v-283h-132v282l-211 318h149l128 -203l128 203h147z" />
    <glyph glyph-name="Z" unicode="Z" horiz-adv-x="512" 
d="M483 600l-253 -483h253v-117h-460l255 483h-230v117h435z" />
    <glyph glyph-name="Zacute" unicode="&#x179;" horiz-adv-x="512" 
d="M426 800l-125 -149h-84l88 149h121zM483 600l-253 -483h253v-117h-460l255 483h-230v117h435z" />
    <glyph glyph-name="Zcaron" unicode="&#x17d;" horiz-adv-x="512" 
d="M304 651h-77l-98 149h80l57 -78l57 78h80zM483 600l-253 -483h253v-117h-460l255 483h-230v117h435z" />
    <glyph glyph-name="Zdotaccent" unicode="&#x17b;" horiz-adv-x="512" 
d="M266 651c-38 0 -70 32 -70 70c0 39 32 70 70 70c39 0 71 -31 71 -70c0 -38 -32 -70 -71 -70zM483 600l-253 -483h253v-117h-460l255 483h-230v117h435z" />
    <glyph glyph-name="a" unicode="a" horiz-adv-x="538" 
d="M505 104h18v-104c-9 -4 -21 -8 -34 -8c-54 0 -98 27 -123 68c-32 -42 -79 -68 -137 -68c-111 0 -198 92 -198 208s87 208 198 208c46 0 84 -16 114 -43v35h127v-257c0 -33 18 -39 35 -39zM254 105c52 0 95 42 95 95s-43 95 -95 95c-53 0 -95 -42 -95 -95s42 -95 95 -95z
" />
    <glyph glyph-name="aacute" unicode="&#xe1;" horiz-adv-x="538" 
d="M411 600l-125 -149h-84l88 149h121zM505 104h18v-104c-9 -4 -21 -8 -34 -8c-54 0 -98 27 -123 68c-32 -42 -79 -68 -137 -68c-111 0 -198 92 -198 208s87 208 198 208c46 0 84 -16 114 -43v35h127v-257c0 -33 18 -39 35 -39zM254 105c52 0 95 42 95 95s-43 95 -95 95
c-53 0 -95 -42 -95 -95s42 -95 95 -95z" />
    <glyph glyph-name="abreve" unicode="&#x103;" horiz-adv-x="538" 
d="M251 444c-86 0 -146 46 -146 141h72c0 -35 29 -69 74 -69c46 0 74 34 74 69h72c0 -95 -59 -141 -146 -141zM505 104h18v-104c-9 -4 -21 -8 -34 -8c-54 0 -98 27 -123 68c-32 -42 -79 -68 -137 -68c-111 0 -198 92 -198 208s87 208 198 208c46 0 84 -16 114 -43v35h127
v-257c0 -33 18 -39 35 -39zM254 105c52 0 95 42 95 95s-43 95 -95 95c-53 0 -95 -42 -95 -95s42 -95 95 -95z" />
    <glyph glyph-name="uni01CE" unicode="&#x1ce;" horiz-adv-x="538" 
d="M289 451h-77l-98 149h80l57 -78l57 78h80zM505 104h18v-104c-9 -4 -21 -8 -34 -8c-54 0 -98 27 -123 68c-32 -42 -79 -68 -137 -68c-111 0 -198 92 -198 208s87 208 198 208c46 0 84 -16 114 -43v35h127v-257c0 -33 18 -39 35 -39zM254 105c52 0 95 42 95 95
s-43 95 -95 95c-53 0 -95 -42 -95 -95s42 -95 95 -95z" />
    <glyph glyph-name="acircumflex" unicode="&#xe2;" horiz-adv-x="538" 
d="M251 529l-57 -78h-80l98 149h77l99 -149h-80zM505 104h18v-104c-9 -4 -21 -8 -34 -8c-54 0 -98 27 -123 68c-32 -42 -79 -68 -137 -68c-111 0 -198 92 -198 208s87 208 198 208c46 0 84 -16 114 -43v35h127v-257c0 -33 18 -39 35 -39zM254 105c52 0 95 42 95 95
s-43 95 -95 95c-53 0 -95 -42 -95 -95s42 -95 95 -95z" />
    <glyph glyph-name="adieresis" unicode="&#xe4;" horiz-adv-x="538" 
d="M167 470c-32 0 -60 28 -60 60c0 34 28 60 60 60c33 0 61 -26 61 -60c0 -32 -28 -60 -61 -60zM335 470c-32 0 -60 28 -60 60c0 34 28 60 60 60c34 0 60 -26 60 -60c0 -32 -26 -60 -60 -60zM505 104h18v-104c-9 -4 -21 -8 -34 -8c-54 0 -98 27 -123 68
c-32 -42 -79 -68 -137 -68c-111 0 -198 92 -198 208s87 208 198 208c46 0 84 -16 114 -43v35h127v-257c0 -33 18 -39 35 -39zM254 105c52 0 95 42 95 95s-43 95 -95 95c-53 0 -95 -42 -95 -95s42 -95 95 -95z" />
    <glyph glyph-name="agrave" unicode="&#xe0;" horiz-adv-x="538" 
d="M300 451h-84l-125 149h121zM505 104h18v-104c-9 -4 -21 -8 -34 -8c-54 0 -98 27 -123 68c-32 -42 -79 -68 -137 -68c-111 0 -198 92 -198 208s87 208 198 208c46 0 84 -16 114 -43v35h127v-257c0 -33 18 -39 35 -39zM254 105c52 0 95 42 95 95s-43 95 -95 95
c-53 0 -95 -42 -95 -95s42 -95 95 -95z" />
    <glyph glyph-name="amacron" unicode="&#x101;" horiz-adv-x="538" 
d="M372 544v-80h-241v80h241zM505 104h18v-104c-9 -4 -21 -8 -34 -8c-54 0 -98 27 -123 68c-32 -42 -79 -68 -137 -68c-111 0 -198 92 -198 208s87 208 198 208c46 0 84 -16 114 -43v35h127v-257c0 -33 18 -39 35 -39zM254 105c52 0 95 42 95 95s-43 95 -95 95
c-53 0 -95 -42 -95 -95s42 -95 95 -95z" />
    <glyph glyph-name="aogonek" unicode="&#x105;" horiz-adv-x="538" 
d="M529 -102l40 -56c-33 -34 -81 -52 -127 -49c-65 5 -101 48 -101 101s39 86 89 110c-27 11 -49 31 -64 56c-32 -42 -79 -68 -137 -68c-111 0 -198 92 -198 208s87 208 198 208c46 0 84 -16 114 -43v35h127v-257c0 -33 18 -39 35 -39h18v-104l-7 -3
c-58 -27 -97 -47 -97 -92c0 -33 17 -50 44 -50c26 0 51 16 66 43zM254 105c52 0 95 42 95 95s-43 95 -95 95c-53 0 -95 -42 -95 -95s42 -95 95 -95z" />
    <glyph glyph-name="aring" unicode="&#xe5;" horiz-adv-x="538" 
d="M251 432c-54 0 -98 44 -98 98c0 53 44 96 98 96c53 0 96 -43 96 -96c0 -54 -43 -98 -96 -98zM251 576c-26 0 -44 -22 -44 -46c0 -28 18 -46 44 -46c25 0 45 18 45 46c0 24 -20 46 -45 46zM505 104h18v-104c-9 -4 -21 -8 -34 -8c-54 0 -98 27 -123 68
c-32 -42 -79 -68 -137 -68c-111 0 -198 92 -198 208s87 208 198 208c46 0 84 -16 114 -43v35h127v-257c0 -33 18 -39 35 -39zM254 105c52 0 95 42 95 95s-43 95 -95 95c-53 0 -95 -42 -95 -95s42 -95 95 -95z" />
    <glyph glyph-name="atilde" unicode="&#xe3;" horiz-adv-x="538" 
d="M202 508c-17 0 -23 -23 -23 -54h-76c0 75 36 128 96 128c38 0 65 -22 83 -47c4 -8 9 -13 17 -13c18 0 23 21 23 54h76c0 -72 -32 -127 -97 -127c-33 0 -59 15 -81 47c-6 9 -11 12 -18 12zM505 104h18v-104c-9 -4 -21 -8 -34 -8c-54 0 -98 27 -123 68
c-32 -42 -79 -68 -137 -68c-111 0 -198 92 -198 208s87 208 198 208c46 0 84 -16 114 -43v35h127v-257c0 -33 18 -39 35 -39zM254 105c52 0 95 42 95 95s-43 95 -95 95c-53 0 -95 -42 -95 -95s42 -95 95 -95z" />
    <glyph glyph-name="ae" unicode="&#xe6;" horiz-adv-x="756" 
d="M726 201v-22h-306c5 -57 35 -92 93 -92c44 0 73 19 84 51h123c-20 -87 -94 -146 -205 -146c-72 0 -131 24 -171 66c-44 -43 -101 -66 -165 -66c-95 0 -148 48 -148 122c0 78 59 124 151 124h107v19c0 37 -26 56 -63 58s-63 -14 -66 -39l-110 31c19 63 86 101 177 101
c59 0 107 -16 140 -44c38 29 87 45 144 45c129 0 215 -83 215 -208zM513 311c-45 0 -72 -21 -85 -55h166c-13 35 -38 55 -81 55zM211 82c35 0 71 21 88 55c-2 8 -4 16 -5 25h-80c-30 0 -51 -16 -51 -42c0 -25 20 -38 48 -38z" />
    <glyph glyph-name="b" unicode="b" horiz-adv-x="529" 
d="M301 408c110 0 197 -92 197 -208s-87 -208 -197 -208c-46 0 -84 16 -114 43v-36l-128 1v685h128v-320c30 27 68 43 114 43zM276 105c53 0 95 42 95 95s-42 95 -95 95s-95 -42 -95 -95s42 -95 95 -95z" />
    <glyph glyph-name="c" unicode="c" horiz-adv-x="496" 
d="M254 -8c-134 0 -223 88 -223 208s89 208 223 208c120 0 202 -70 219 -170h-132c-13 34 -46 56 -87 57c-55 -1 -95 -41 -95 -95s40 -94 95 -95c41 1 74 23 87 57h132c-17 -100 -99 -170 -219 -170z" />
    <glyph glyph-name="cacute" unicode="&#x107;" horiz-adv-x="496" 
d="M184 452l88 149h121l-125 -149h-84zM254 -8c-134 0 -223 88 -223 208s89 208 223 208c120 0 202 -70 219 -170h-132c-13 34 -46 56 -87 57c-55 -1 -95 -41 -95 -95s40 -94 95 -95c41 1 74 23 87 57h132c-17 -100 -99 -170 -219 -170z" />
    <glyph glyph-name="ccaron" unicode="&#x10d;" horiz-adv-x="496" 
d="M194 452l-98 149h80l57 -78l57 78h80l-99 -149h-77zM254 -8c-134 0 -223 88 -223 208s89 208 223 208c120 0 202 -70 219 -170h-132c-13 34 -46 56 -87 57c-55 -1 -95 -41 -95 -95s40 -94 95 -95c41 1 74 23 87 57h132c-17 -100 -99 -170 -219 -170z" />
    <glyph glyph-name="ccedilla" unicode="&#xe7;" horiz-adv-x="496" 
d="M254 105c41 1 74 23 87 57h132c-16 -96 -93 -165 -206 -170l-23 -39c51 9 92 -24 92 -73c0 -50 -39 -89 -89 -89c-41 0 -82 28 -94 62l56 18c7 -12 24 -22 38 -22c17 0 31 14 31 31c0 28 -28 37 -62 19l-45 26l39 70c-109 17 -179 99 -179 205c0 120 89 208 223 208
c120 0 202 -70 219 -170h-132c-13 34 -46 56 -87 57c-55 -1 -95 -41 -95 -95s40 -94 95 -95z" />
    <glyph glyph-name="cdotaccent" unicode="&#x10b;" horiz-adv-x="496" 
d="M233 452c-38 0 -70 32 -70 70c0 39 32 70 70 70c39 0 71 -31 71 -70c0 -38 -32 -70 -71 -70zM254 -8c-134 0 -223 88 -223 208s89 208 223 208c120 0 202 -70 219 -170h-132c-13 34 -46 56 -87 57c-55 -1 -95 -41 -95 -95s40 -94 95 -95c41 1 74 23 87 57h132
c-17 -100 -99 -170 -219 -170z" />
    <glyph glyph-name="d" unicode="d" horiz-adv-x="529" 
d="M343 685h127v-685l-127 -1v36c-30 -27 -68 -43 -114 -43c-111 0 -198 92 -198 208s87 208 198 208c46 0 84 -16 114 -43v320zM254 105c52 0 95 42 95 95s-43 95 -95 95c-53 0 -95 -42 -95 -95s42 -95 95 -95z" />
    <glyph glyph-name="eth" unicode="&#xf0;" horiz-adv-x="504" 
d="M318 569c98 -73 161 -203 161 -369c0 -116 -98 -208 -224 -208c-125 0 -224 92 -224 208s99 208 224 208c20 0 40 -2 58 -7c-17 35 -39 62 -63 82l-36 -46l-58 44l30 38c-31 11 -63 15 -92 14l26 101c48 0 93 -10 135 -28l40 51l57 -44zM255 105c53 0 95 42 95 95
s-42 95 -95 95s-95 -42 -95 -95s42 -95 95 -95z" />
    <glyph glyph-name="dcaron" unicode="&#x10f;" horiz-adv-x="674" 
d="M343 365v320h127v-685l-127 -1v36c-30 -27 -68 -43 -114 -43c-111 0 -198 92 -198 208s87 208 198 208c46 0 84 -16 114 -43zM587 685h106l-108 -242h-66zM254 105c52 0 95 42 95 95s-43 95 -95 95c-53 0 -95 -42 -95 -95s42 -95 95 -95z" />
    <glyph glyph-name="dcroat" unicode="&#x111;" horiz-adv-x="529" 
d="M521 557v-68h-51v-489l-127 -1v36c-30 -27 -68 -43 -114 -43c-111 0 -198 92 -198 208s87 208 198 208c46 0 84 -16 114 -43v124h-102v68h102v128h127v-128h51zM254 105c52 0 95 42 95 95s-43 95 -95 95c-53 0 -95 -42 -95 -95s42 -95 95 -95z" />
    <glyph glyph-name="e" unicode="e" horiz-adv-x="496" 
d="M466 201v-22h-306c5 -57 35 -92 93 -92c44 0 73 19 84 51h123c-20 -87 -94 -146 -205 -146c-134 0 -224 83 -224 208s91 209 220 209s215 -83 215 -208zM253 311c-45 0 -72 -21 -85 -55h166c-13 35 -38 55 -81 55z" />
    <glyph glyph-name="eacute" unicode="&#xe9;" horiz-adv-x="496" 
d="M415 601l-125 -149h-84l88 149h121zM466 201v-22h-306c5 -57 35 -92 93 -92c44 0 73 19 84 51h123c-20 -87 -94 -146 -205 -146c-134 0 -224 83 -224 208s91 209 220 209s215 -83 215 -208zM253 311c-45 0 -72 -21 -85 -55h166c-13 35 -38 55 -81 55z" />
    <glyph glyph-name="ecaron" unicode="&#x11b;" horiz-adv-x="496" 
d="M293 452h-77l-98 149h80l57 -78l57 78h80zM466 201v-22h-306c5 -57 35 -92 93 -92c44 0 73 19 84 51h123c-20 -87 -94 -146 -205 -146c-134 0 -224 83 -224 208s91 209 220 209s215 -83 215 -208zM253 311c-45 0 -72 -21 -85 -55h166c-13 35 -38 55 -81 55z" />
    <glyph glyph-name="ecircumflex" unicode="&#xea;" horiz-adv-x="496" 
d="M255 530l-57 -78h-80l98 149h77l99 -149h-80zM466 201v-22h-306c5 -57 35 -92 93 -92c44 0 73 19 84 51h123c-20 -87 -94 -146 -205 -146c-134 0 -224 83 -224 208s91 209 220 209s215 -83 215 -208zM253 311c-45 0 -72 -21 -85 -55h166c-13 35 -38 55 -81 55z" />
    <glyph glyph-name="edieresis" unicode="&#xeb;" horiz-adv-x="496" 
d="M171 471c-32 0 -60 28 -60 60c0 34 28 60 60 60c33 0 61 -26 61 -60c0 -32 -28 -60 -61 -60zM339 471c-32 0 -60 28 -60 60c0 34 28 60 60 60c34 0 60 -26 60 -60c0 -32 -26 -60 -60 -60zM466 201v-22h-306c5 -57 35 -92 93 -92c44 0 73 19 84 51h123
c-20 -87 -94 -146 -205 -146c-134 0 -224 83 -224 208s91 209 220 209s215 -83 215 -208zM253 311c-45 0 -72 -21 -85 -55h166c-13 35 -38 55 -81 55z" />
    <glyph glyph-name="edotaccent" unicode="&#x117;" horiz-adv-x="496" 
d="M255 452c-38 0 -70 32 -70 70c0 39 32 70 70 70c39 0 71 -31 71 -70c0 -38 -32 -70 -71 -70zM466 201v-22h-306c5 -57 35 -92 93 -92c44 0 73 19 84 51h123c-20 -87 -94 -146 -205 -146c-134 0 -224 83 -224 208s91 209 220 209s215 -83 215 -208zM253 311
c-45 0 -72 -21 -85 -55h166c-13 35 -38 55 -81 55z" />
    <glyph glyph-name="egrave" unicode="&#xe8;" horiz-adv-x="496" 
d="M304 452h-84l-125 149h121zM466 201v-22h-306c5 -57 35 -92 93 -92c44 0 73 19 84 51h123c-20 -87 -94 -146 -205 -146c-134 0 -224 83 -224 208s91 209 220 209s215 -83 215 -208zM253 311c-45 0 -72 -21 -85 -55h166c-13 35 -38 55 -81 55z" />
    <glyph glyph-name="emacron" unicode="&#x113;" horiz-adv-x="496" 
d="M376 545v-80h-241v80h241zM466 201v-22h-306c5 -57 35 -92 93 -92c44 0 73 19 84 51h123c-20 -87 -94 -146 -205 -146c-134 0 -224 83 -224 208s91 209 220 209s215 -83 215 -208zM253 311c-45 0 -72 -21 -85 -55h166c-13 35 -38 55 -81 55z" />
    <glyph glyph-name="eogonek" unicode="&#x119;" horiz-adv-x="496" 
d="M466 201v-22h-306c5 -57 35 -92 93 -92c44 0 73 19 84 51h123c-14 -62 -56 -110 -120 -132c-49 -24 -81 -45 -81 -85c0 -33 17 -50 44 -50c26 0 51 16 66 43l40 -56c-33 -34 -81 -52 -127 -49c-65 5 -101 48 -101 101c0 35 18 62 45 83c-118 12 -195 91 -195 207
c0 125 91 209 220 209s215 -83 215 -208zM253 311c-45 0 -72 -21 -85 -55h166c-13 35 -38 55 -81 55z" />
    <glyph glyph-name="f" unicode="f" horiz-adv-x="301" 
d="M301 400v-99h-95v-301h-128v301h-67v99h67v135c0 85 72 150 157 150c27 0 54 -5 64 -12v-100h-48c-27 0 -45 -20 -45 -53v-120h95z" />
    <glyph glyph-name="g" unicode="g" horiz-adv-x="543" 
d="M482 400l1 -404c0 -148 -87 -237 -233 -237c-105 0 -180 47 -213 129l117 47c15 -40 50 -65 96 -65c65 0 106 45 106 119v53c-33 -31 -77 -50 -127 -50c-111 0 -198 92 -198 208c0 117 87 208 198 208c49 0 92 -18 125 -48v40h128zM261 105c53 0 96 42 96 95
s-43 95 -96 95s-95 -42 -95 -95s42 -95 95 -95z" />
    <glyph glyph-name="gbreve" unicode="&#x11f;" horiz-adv-x="543" 
d="M253 444c-86 0 -146 46 -146 141h72c0 -35 29 -69 74 -69c46 0 74 34 74 69h72c0 -95 -59 -141 -146 -141zM482 400l1 -404c0 -148 -87 -237 -233 -237c-105 0 -180 47 -213 129l117 47c15 -40 50 -65 96 -65c65 0 106 45 106 119v53c-33 -31 -77 -50 -127 -50
c-111 0 -198 92 -198 208c0 117 87 208 198 208c49 0 92 -18 125 -48v40h128zM261 105c53 0 96 42 96 95s-43 95 -96 95s-95 -42 -95 -95s42 -95 95 -95z" />
    <glyph glyph-name="gcommaaccent" unicode="&#x123;" horiz-adv-x="543" 
d="M379 607l-56 -152h-110l105 152h61zM482 400l1 -404c0 -148 -87 -237 -233 -237c-105 0 -180 47 -213 129l117 47c15 -40 50 -65 96 -65c65 0 106 45 106 119v53c-33 -31 -77 -50 -127 -50c-111 0 -198 92 -198 208c0 117 87 208 198 208c49 0 92 -18 125 -48v40h128z
M261 105c53 0 96 42 96 95s-43 95 -96 95s-95 -42 -95 -95s42 -95 95 -95z" />
    <glyph glyph-name="gdotaccent" unicode="&#x121;" horiz-adv-x="543" 
d="M253 451c-38 0 -70 32 -70 70c0 39 32 70 70 70c39 0 71 -31 71 -70c0 -38 -32 -70 -71 -70zM482 400l1 -404c0 -148 -87 -237 -233 -237c-105 0 -180 47 -213 129l117 47c15 -40 50 -65 96 -65c65 0 106 45 106 119v53c-33 -31 -77 -50 -127 -50
c-111 0 -198 92 -198 208c0 117 87 208 198 208c49 0 92 -18 125 -48v40h128zM261 105c53 0 96 42 96 95s-43 95 -96 95s-95 -42 -95 -95s42 -95 95 -95z" />
    <glyph glyph-name="h" unicode="h" horiz-adv-x="494" 
d="M299 408c81 0 145 -67 145 -155v-253h-128v232c0 35 -25 63 -61 63c-39 0 -68 -34 -68 -69v-226h-128v685h128v-330c28 33 68 53 112 53z" />
    <glyph glyph-name="hbar" unicode="&#x127;" horiz-adv-x="494" 
d="M299 408c81 0 145 -67 145 -155v-253h-128v232c0 35 -25 63 -61 63c-39 0 -68 -34 -68 -69v-226h-128v493h-51v68h51v124h128v-124h101v-68h-101v-138c28 33 68 53 112 53z" />
    <glyph glyph-name="i" unicode="i" horiz-adv-x="250" 
d="M125 467c-38 0 -70 32 -70 70c0 39 32 70 70 70s70 -31 70 -70c0 -38 -32 -70 -70 -70zM61 0v400h127v-400h-127z" />
    <glyph glyph-name="dotlessi" unicode="&#x131;" horiz-adv-x="256" 
d="M64 0v400h128v-400h-128z" />
    <glyph glyph-name="iacute" unicode="&#xed;" horiz-adv-x="256" 
d="M79 451l88 149h121l-125 -149h-84zM64 0v400h128v-400h-128z" />
    <glyph glyph-name="uni01D0" unicode="&#x1d0;" horiz-adv-x="256" 
d="M89 451l-98 149h80l57 -78l57 78h80l-99 -149h-77zM64 0v400h128v-400h-128z" />
    <glyph glyph-name="icircumflex" unicode="&#xee;" horiz-adv-x="256" 
d="M71 451h-80l98 149h77l99 -149h-80l-57 78zM64 0v400h128v-400h-128z" />
    <glyph glyph-name="idieresis" unicode="&#xef;" horiz-adv-x="256" 
d="M44 470c-32 0 -60 28 -60 60c0 34 28 60 60 60c33 0 61 -26 61 -60c0 -32 -28 -60 -61 -60zM212 470c-32 0 -60 28 -60 60c0 34 28 60 60 60c34 0 60 -26 60 -60c0 -32 -26 -60 -60 -60zM64 0v400h128v-400h-128z" />
    <glyph glyph-name="i.loclTRK" horiz-adv-x="256" 
d="M128 451c-38 0 -70 32 -70 70c0 39 32 70 70 70c39 0 71 -31 71 -70c0 -38 -32 -70 -71 -70zM64 0v400h128v-400h-128z" />
    <glyph glyph-name="igrave" unicode="&#xec;" horiz-adv-x="256" 
d="M177 451h-84l-125 149h121zM64 0v400h128v-400h-128z" />
    <glyph glyph-name="imacron" unicode="&#x12b;" horiz-adv-x="256" 
d="M8 464v80h241v-80h-241zM64 0v400h128v-400h-128z" />
    <glyph glyph-name="iogonek" unicode="&#x12f;" horiz-adv-x="256" 
d="M128 451c-38 0 -70 32 -70 70c0 39 32 70 70 70c39 0 71 -31 71 -70c0 -38 -32 -70 -71 -70zM187 -102l40 -56c-33 -34 -81 -52 -127 -49c-65 5 -101 48 -101 101c0 50 35 83 81 106h-16v400h128v-400h-12c-61 -29 -103 -49 -103 -95c0 -33 17 -50 44 -50
c26 0 51 16 66 43z" />
    <glyph glyph-name="j" unicode="j" horiz-adv-x="250" 
d="M125 467c-38 0 -70 32 -70 70c0 39 32 70 70 70s70 -31 70 -70c0 -38 -32 -70 -70 -70zM32 -240c-27 0 -54 6 -65 13v99h49c26 0 45 21 45 54v474h127v-489c0 -85 -72 -151 -156 -151z" />
    <glyph glyph-name="uni0237" unicode="&#x237;" horiz-adv-x="246" 
d="M30 -240c-27 0 -53 6 -64 13v99h48c27 0 46 21 46 54v474h127v-489c0 -85 -72 -151 -157 -151z" />
    <glyph glyph-name="k" unicode="k" horiz-adv-x="481" 
d="M499 0h-166l-141 184v-184h-127v685h127v-429l139 144h153l-175 -181z" />
    <glyph glyph-name="kcommaaccent" unicode="&#x137;" horiz-adv-x="481" 
d="M309 219l190 -219h-166l-141 184v-184h-127v685h127v-429l139 144h153zM147 -200l56 152h110l-105 -152h-61z" />
    <glyph glyph-name="l" unicode="l" horiz-adv-x="246" 
d="M59 0v685h128v-685h-128z" />
    <glyph glyph-name="lacute" unicode="&#x13a;" horiz-adv-x="246" 
d="M74 736l88 149h121l-125 -149h-84zM59 0v685h128v-685h-128z" />
    <glyph glyph-name="lcaron" unicode="&#x13e;" horiz-adv-x="389" 
d="M59 0v685h128v-685h-128zM300 443h-66l68 242h106z" />
    <glyph glyph-name="lcommaaccent" unicode="&#x13c;" horiz-adv-x="246" 
d="M59 0v685h128v-685h-128zM73 -200h-61l56 152h110z" />
    <glyph glyph-name="ldot" unicode="&#x140;" horiz-adv-x="246" 
d="M59 0v685h128v-685h-128zM260 244c-24 0 -45 20 -45 46c0 24 21 45 45 45s47 -21 47 -45c0 -26 -23 -46 -47 -46z" />
    <glyph glyph-name="lslash" unicode="&#x142;" horiz-adv-x="246" 
d="M286 457l-99 -104v-353h-128v219l-49 -51l-50 45l99 104v368h128v-233l47 49z" />
    <glyph glyph-name="m" unicode="m" horiz-adv-x="724" 
d="M536 408c88 0 137 -62 137 -155v-253h-127v232c0 35 -24 63 -59 63c-39 0 -57 -34 -57 -63v-232h-128v232c0 35 -23 63 -58 63c-39 0 -57 -34 -57 -63v-232h-128v400h128v-49c26 35 63 57 109 57c51 0 91 -28 114 -70c25 44 69 70 126 70z" />
    <glyph glyph-name="n" unicode="n" horiz-adv-x="495" 
d="M301 408c79 0 143 -67 143 -155v-253h-127v232c0 36 -26 63 -63 63s-67 -27 -67 -63v-232h-128v400h128v-49c28 35 68 57 114 57z" />
    <glyph glyph-name="nacute" unicode="&#x144;" horiz-adv-x="495" 
d="M414 600l-125 -149h-84l88 149h121zM301 408c79 0 143 -67 143 -155v-253h-127v232c0 36 -26 63 -63 63s-67 -27 -67 -63v-232h-128v400h128v-49c28 35 68 57 114 57z" />
    <glyph glyph-name="ncaron" unicode="&#x148;" horiz-adv-x="495" 
d="M292 451h-77l-98 149h80l57 -78l57 78h80zM301 408c79 0 143 -67 143 -155v-253h-127v232c0 36 -26 63 -63 63s-67 -27 -67 -63v-232h-128v400h128v-49c28 35 68 57 114 57z" />
    <glyph glyph-name="ncommaaccent" unicode="&#x146;" horiz-adv-x="495" 
d="M301 408c79 0 143 -67 143 -155v-253h-127v232c0 36 -26 63 -63 63s-67 -27 -67 -63v-232h-128v400h128v-49c28 35 68 57 114 57zM141 -200l56 152h110l-105 -152h-61z" />
    <glyph glyph-name="eng" unicode="&#x14b;" horiz-adv-x="495" 
d="M301 408c79 0 143 -67 143 -155v-253v-68c0 -118 -76 -154 -186 -154v76c33 1 59 5 59 73v305c0 37 -27 63 -63 63c-38 0 -67 -26 -67 -63v-232h-128v400h128v-49c28 35 68 57 114 57z" />
    <glyph glyph-name="ntilde" unicode="&#xf1;" horiz-adv-x="495" 
d="M205 508c-17 0 -23 -23 -23 -54h-76c0 75 36 128 96 128c38 0 65 -22 83 -47c4 -8 9 -13 17 -13c18 0 23 21 23 54h76c0 -72 -32 -127 -97 -127c-33 0 -59 15 -81 47c-6 9 -11 12 -18 12zM301 408c79 0 143 -67 143 -155v-253h-127v232c0 36 -26 63 -63 63
s-67 -27 -67 -63v-232h-128v400h128v-49c28 35 68 57 114 57z" />
    <glyph glyph-name="o" unicode="o" horiz-adv-x="508" 
d="M254 -8c-134 0 -223 88 -223 208s89 208 223 208s222 -88 222 -208s-88 -208 -222 -208zM254 105c54 1 95 41 95 95s-41 94 -95 95c-55 -1 -95 -41 -95 -95s40 -94 95 -95z" />
    <glyph glyph-name="oacute" unicode="&#xf3;" horiz-adv-x="508" 
d="M205 451l88 149h121l-125 -149h-84zM254 -8c-134 0 -223 88 -223 208s89 208 223 208s222 -88 222 -208s-88 -208 -222 -208zM254 105c54 1 95 41 95 95s-41 94 -95 95c-55 -1 -95 -41 -95 -95s40 -94 95 -95z" />
    <glyph glyph-name="uni01D2" unicode="&#x1d2;" horiz-adv-x="508" 
d="M215 451l-98 149h80l57 -78l57 78h80l-99 -149h-77zM254 -8c-134 0 -223 88 -223 208s89 208 223 208s222 -88 222 -208s-88 -208 -222 -208zM254 105c54 1 95 41 95 95s-41 94 -95 95c-55 -1 -95 -41 -95 -95s40 -94 95 -95z" />
    <glyph glyph-name="ocircumflex" unicode="&#xf4;" horiz-adv-x="508" 
d="M197 451h-80l98 149h77l99 -149h-80l-57 78zM254 -8c-134 0 -223 88 -223 208s89 208 223 208s222 -88 222 -208s-88 -208 -222 -208zM254 105c54 1 95 41 95 95s-41 94 -95 95c-55 -1 -95 -41 -95 -95s40 -94 95 -95z" />
    <glyph glyph-name="odieresis" unicode="&#xf6;" horiz-adv-x="508" 
d="M170 470c-32 0 -60 28 -60 60c0 34 28 60 60 60c33 0 61 -26 61 -60c0 -32 -28 -60 -61 -60zM338 470c-32 0 -60 28 -60 60c0 34 28 60 60 60c34 0 60 -26 60 -60c0 -32 -26 -60 -60 -60zM254 -8c-134 0 -223 88 -223 208s89 208 223 208s222 -88 222 -208
s-88 -208 -222 -208zM254 105c54 1 95 41 95 95s-41 94 -95 95c-55 -1 -95 -41 -95 -95s40 -94 95 -95z" />
    <glyph glyph-name="ograve" unicode="&#xf2;" horiz-adv-x="508" 
d="M303 451h-84l-125 149h121zM254 -8c-134 0 -223 88 -223 208s89 208 223 208s222 -88 222 -208s-88 -208 -222 -208zM254 105c54 1 95 41 95 95s-41 94 -95 95c-55 -1 -95 -41 -95 -95s40 -94 95 -95z" />
    <glyph glyph-name="ohungarumlaut" unicode="&#x151;" horiz-adv-x="508" 
d="M129 451l87 149h120l-124 -149h-83zM290 451l87 149h120l-124 -149h-83zM254 -8c-134 0 -223 88 -223 208s89 208 223 208s222 -88 222 -208s-88 -208 -222 -208zM254 105c54 1 95 41 95 95s-41 94 -95 95c-55 -1 -95 -41 -95 -95s40 -94 95 -95z" />
    <glyph glyph-name="omacron" unicode="&#x14d;" horiz-adv-x="508" 
d="M134 464v80h241v-80h-241zM254 -8c-134 0 -223 88 -223 208s89 208 223 208s222 -88 222 -208s-88 -208 -222 -208zM254 105c54 1 95 41 95 95s-41 94 -95 95c-55 -1 -95 -41 -95 -95s40 -94 95 -95z" />
    <glyph glyph-name="oslash" unicode="&#xf8;" horiz-adv-x="508" 
d="M403 360c46 -37 73 -94 73 -160c0 -120 -88 -208 -222 -208c-35 0 -67 6 -96 17l-29 -42l-52 31l29 41c-48 38 -75 94 -75 161c0 120 89 208 223 208c35 0 68 -6 96 -17l30 43l52 -32zM159 200c0 -22 7 -42 18 -58l104 149c-9 2 -18 4 -27 4c-55 -1 -95 -41 -95 -95z
M254 105c54 1 95 41 95 95c0 22 -7 41 -18 57l-103 -148c8 -3 17 -4 26 -4z" />
    <glyph glyph-name="otilde" unicode="&#xf5;" horiz-adv-x="508" 
d="M304 449c-33 0 -59 15 -81 47c-6 9 -11 12 -18 12c-17 0 -23 -23 -23 -54h-76c0 75 36 128 96 128c38 0 65 -22 83 -47c4 -8 9 -13 17 -13c18 0 23 21 23 54h76c0 -72 -32 -127 -97 -127zM254 -8c-134 0 -223 88 -223 208s89 208 223 208s222 -88 222 -208
s-88 -208 -222 -208zM254 105c54 1 95 41 95 95s-41 94 -95 95c-55 -1 -95 -41 -95 -95s40 -94 95 -95z" />
    <glyph glyph-name="oe" unicode="&#x153;" horiz-adv-x="816" 
d="M786 201v-22h-306c5 -57 35 -92 93 -92c44 0 73 19 84 51h123c-20 -87 -94 -146 -205 -146c-67 0 -123 21 -162 57c-39 -36 -93 -57 -159 -57c-134 0 -223 88 -223 208s89 208 223 208c66 0 120 -21 159 -57c39 37 94 58 158 58c129 0 215 -83 215 -208zM573 311
c-45 0 -72 -21 -85 -55h166c-13 35 -38 55 -81 55zM254 105c54 1 95 41 95 95s-41 94 -95 95c-55 -1 -95 -41 -95 -95s40 -94 95 -95z" />
    <glyph glyph-name="p" unicode="p" horiz-adv-x="529" 
d="M301 408c110 0 197 -92 197 -208s-87 -208 -197 -208c-46 0 -84 16 -114 43v-276l-128 1v640l128 -1v-34c30 27 68 43 114 43zM276 105c53 0 95 42 95 95s-42 95 -95 95s-95 -42 -95 -95s42 -95 95 -95z" />
    <glyph glyph-name="thorn" unicode="&#xfe;" horiz-adv-x="534" 
d="M305 408c112 0 197 -92 197 -208s-85 -208 -197 -208c-45 0 -83 15 -113 42v-274h-127v853h127v-247c30 27 68 42 113 42zM287 105c53 0 95 42 95 95s-42 95 -95 95s-95 -42 -95 -95s42 -95 95 -95z" />
    <glyph glyph-name="q" unicode="q" horiz-adv-x="529" 
d="M516 -128h37v-104c-13 -4 -33 -8 -53 -8c-85 0 -157 66 -157 151v124c-30 -27 -68 -43 -114 -43c-111 0 -198 92 -198 208s87 208 198 208c46 0 84 -16 114 -43v35h127v-474c0 -33 19 -54 46 -54zM254 105c52 0 95 42 95 95s-43 95 -95 95c-53 0 -95 -42 -95 -95
s42 -95 95 -95z" />
    <glyph glyph-name="r" unicode="r" horiz-adv-x="330" 
d="M299 408c12 0 24 -1 33 -4v-113c-9 2 -22 4 -37 4c-63 0 -108 -38 -108 -104v-191h-128v400h128v-55c26 39 65 63 112 63z" />
    <glyph glyph-name="racute" unicode="&#x155;" horiz-adv-x="330" 
d="M338 600l-125 -149h-84l88 149h121zM187 345c26 39 65 63 112 63c12 0 24 -1 33 -4v-113c-9 2 -22 4 -37 4c-63 0 -108 -38 -108 -104v-191h-128v400h128v-55z" />
    <glyph glyph-name="rcaron" unicode="&#x159;" horiz-adv-x="330" 
d="M216 451h-77l-98 149h80l57 -78l57 78h80zM299 408c12 0 24 -1 33 -4v-113c-9 2 -22 4 -37 4c-63 0 -108 -38 -108 -104v-191h-128v400h128v-55c26 39 65 63 112 63z" />
    <glyph glyph-name="rcommaaccent" unicode="&#x157;" horiz-adv-x="330" 
d="M299 408c12 0 24 -1 33 -4v-113c-9 2 -22 4 -37 4c-63 0 -108 -38 -108 -104v-191h-128v400h128v-55c26 39 65 63 112 63zM12 -200l56 152h110l-105 -152h-61z" />
    <glyph glyph-name="s" unicode="s" horiz-adv-x="352" 
d="M188 -8c-71 0 -145 34 -169 96l94 47c18 -34 46 -42 67 -42s35 9 35 25c0 14 -12 24 -48 38c-46 17 -126 44 -126 124c0 68 58 128 149 128c56 0 105 -23 135 -53l-64 -72c-12 15 -36 29 -62 29c-22 0 -32 -10 -32 -23c0 -15 14 -21 43 -33c57 -22 123 -54 123 -134
c0 -75 -55 -130 -145 -130z" />
    <glyph glyph-name="sacute" unicode="&#x15b;" horiz-adv-x="352" 
d="M141 451l88 149h121l-125 -149h-84zM188 -8c-71 0 -145 34 -169 96l94 47c18 -34 46 -42 67 -42s35 9 35 25c0 14 -12 24 -48 38c-46 17 -126 44 -126 124c0 68 58 128 149 128c56 0 105 -23 135 -53l-64 -72c-12 15 -36 29 -62 29c-22 0 -32 -10 -32 -23
c0 -15 14 -21 43 -33c57 -22 123 -54 123 -134c0 -75 -55 -130 -145 -130z" />
    <glyph glyph-name="scaron" unicode="&#x161;" horiz-adv-x="352" 
d="M151 451l-98 149h80l57 -78l57 78h80l-99 -149h-77zM188 -8c-71 0 -145 34 -169 96l94 47c18 -34 46 -42 67 -42s35 9 35 25c0 14 -12 24 -48 38c-46 17 -126 44 -126 124c0 68 58 128 149 128c56 0 105 -23 135 -53l-64 -72c-12 15 -36 29 -62 29c-22 0 -32 -10 -32 -23
c0 -15 14 -21 43 -33c57 -22 123 -54 123 -134c0 -75 -55 -130 -145 -130z" />
    <glyph glyph-name="scedilla" unicode="&#x15f;" horiz-adv-x="352" 
d="M333 122c0 -68 -45 -119 -120 -128l-23 -40c51 9 92 -24 92 -73c0 -50 -39 -89 -89 -89c-41 0 -82 28 -94 62l56 18c7 -12 24 -22 38 -22c17 0 31 14 31 31c0 28 -28 37 -62 19l-45 26l38 68c-60 9 -116 42 -136 94l94 47c18 -34 46 -42 67 -42s35 9 35 25
c0 14 -12 24 -48 38c-46 17 -126 44 -126 124c0 68 58 128 149 128c56 0 105 -23 135 -53l-64 -72c-12 15 -36 29 -62 29c-22 0 -32 -10 -32 -23c0 -15 14 -21 43 -33c57 -22 123 -54 123 -134z" />
    <glyph glyph-name="scommaaccent" unicode="&#x219;" horiz-adv-x="352" 
d="M188 -8c-71 0 -145 34 -169 96l94 47c18 -34 46 -42 67 -42s35 9 35 25c0 14 -12 24 -48 38c-46 17 -126 44 -126 124c0 68 58 128 149 128c56 0 105 -23 135 -53l-64 -72c-12 15 -36 29 -62 29c-22 0 -32 -10 -32 -23c0 -15 14 -21 43 -33c57 -22 123 -54 123 -134
c0 -75 -55 -130 -145 -130zM137 -200h-61l56 152h110z" />
    <glyph glyph-name="germandbls" unicode="&#xdf;" horiz-adv-x="567" 
d="M440 315c48 -34 78 -87 78 -148c0 -97 -71 -173 -165 -167h-96v113h71c32 1 63 24 63 62c0 42 -37 77 -84 77h-28v104h11c40 0 74 32 74 70c0 37 -34 63 -80 63c-52 0 -92 -33 -92 -79v-410h-127v410c0 110 94 190 217 190c118 0 202 -73 202 -172
c0 -44 -16 -83 -44 -113z" />
    <glyph glyph-name="t" unicode="t" horiz-adv-x="320" 
d="M300 301h-95v-143c0 -33 19 -54 46 -54h48v-99c-10 -7 -37 -13 -64 -13c-85 0 -157 66 -157 151v158h-67v99h67v154h127v-154h95v-99z" />
    <glyph glyph-name="tbar" unicode="&#x167;" horiz-adv-x="320" 
d="M300 301h-95v-67h91v-68h-91v-8c0 -33 19 -54 46 -54h48v-99c-10 -7 -37 -13 -64 -13c-85 0 -157 66 -157 151v23h-62v68h62v67h-67v99h67v154h127v-154h95v-99z" />
    <glyph glyph-name="tcaron" unicode="&#x165;" horiz-adv-x="394" 
d="M313 672h106l-108 -242h-66zM205 554v-154h95v-99h-95v-143c0 -33 19 -54 46 -54h48v-99c-10 -7 -37 -13 -64 -13c-85 0 -157 66 -157 151v158h-67v99h67v154h127z" />
    <glyph glyph-name="uni0163" unicode="&#x163;" horiz-adv-x="320" 
d="M237 -46c51 9 92 -24 92 -73c0 -50 -39 -89 -89 -89c-41 0 -82 28 -94 62l56 18c7 -12 24 -22 38 -22c17 0 31 14 31 31c0 28 -28 37 -62 19l-45 26l38 69c-70 15 -124 74 -124 148v158h-67v99h67v154h127v-154h95v-99h-95v-143c0 -33 19 -54 46 -54h48v-99
c-7 -5 -22 -9 -39 -11z" />
    <glyph glyph-name="uni021B" unicode="&#x21b;" horiz-adv-x="320" 
d="M300 301h-95v-143c0 -33 19 -54 46 -54h48v-99c-10 -7 -37 -13 -64 -13c-85 0 -157 66 -157 151v158h-67v99h67v154h127v-154h95v-99zM123 -200l56 152h110l-105 -152h-61z" />
    <glyph glyph-name="u" unicode="u" horiz-adv-x="477" 
d="M238 -8c-121 0 -188 63 -188 161v247h128v-230c0 -38 26 -65 60 -65c35 0 61 27 61 65v230h127v-247c0 -98 -67 -161 -188 -161z" />
    <glyph glyph-name="uacute" unicode="&#xfa;" horiz-adv-x="477" 
d="M192 451l88 149h121l-125 -149h-84zM238 -8c-121 0 -188 63 -188 161v247h128v-230c0 -38 26 -65 60 -65c35 0 61 27 61 65v230h127v-247c0 -98 -67 -161 -188 -161z" />
    <glyph glyph-name="uni01D4" unicode="&#x1d4;" horiz-adv-x="477" 
d="M202 451l-98 149h80l57 -78l57 78h80l-99 -149h-77zM238 -8c-121 0 -188 63 -188 161v247h128v-230c0 -38 26 -65 60 -65c35 0 61 27 61 65v230h127v-247c0 -98 -67 -161 -188 -161z" />
    <glyph glyph-name="ucircumflex" unicode="&#xfb;" horiz-adv-x="477" 
d="M184 451h-80l98 149h77l99 -149h-80l-57 78zM238 -8c-121 0 -188 63 -188 161v247h128v-230c0 -38 26 -65 60 -65c35 0 61 27 61 65v230h127v-247c0 -98 -67 -161 -188 -161z" />
    <glyph glyph-name="udieresis" unicode="&#xfc;" horiz-adv-x="477" 
d="M157 470c-32 0 -60 28 -60 60c0 34 28 60 60 60c33 0 61 -26 61 -60c0 -32 -28 -60 -61 -60zM325 470c-32 0 -60 28 -60 60c0 34 28 60 60 60c34 0 60 -26 60 -60c0 -32 -26 -60 -60 -60zM238 -8c-121 0 -188 63 -188 161v247h128v-230c0 -38 26 -65 60 -65
c35 0 61 27 61 65v230h127v-247c0 -98 -67 -161 -188 -161z" />
    <glyph glyph-name="ugrave" unicode="&#xf9;" horiz-adv-x="477" 
d="M290 451h-84l-125 149h121zM238 -8c-121 0 -188 63 -188 161v247h128v-230c0 -38 26 -65 60 -65c35 0 61 27 61 65v230h127v-247c0 -98 -67 -161 -188 -161z" />
    <glyph glyph-name="uhungarumlaut" unicode="&#x171;" horiz-adv-x="477" 
d="M116 451l87 149h120l-124 -149h-83zM277 451l87 149h120l-124 -149h-83zM238 -8c-121 0 -188 63 -188 161v247h128v-230c0 -38 26 -65 60 -65c35 0 61 27 61 65v230h127v-247c0 -98 -67 -161 -188 -161z" />
    <glyph glyph-name="umacron" unicode="&#x16b;" horiz-adv-x="477" 
d="M121 464v80h241v-80h-241zM238 -8c-121 0 -188 63 -188 161v247h128v-230c0 -38 26 -65 60 -65c35 0 61 27 61 65v230h127v-247c0 -98 -67 -161 -188 -161z" />
    <glyph glyph-name="uogonek" unicode="&#x173;" horiz-adv-x="477" 
d="M426 153c0 -55 -21 -99 -61 -127c-13 -9 -28 -16 -44 -22c-36 -19 -59 -39 -59 -73c0 -33 17 -50 44 -50c26 0 51 16 66 43l40 -56c-33 -34 -81 -52 -127 -49c-65 5 -101 48 -101 101c0 30 13 53 32 73c-107 7 -166 68 -166 160v247h128v-230c0 -38 26 -65 60 -65
c35 0 61 27 61 65v230h127v-247z" />
    <glyph glyph-name="uring" unicode="&#x16f;" horiz-adv-x="477" 
d="M241 432c-54 0 -98 44 -98 98c0 53 44 96 98 96c53 0 96 -43 96 -96c0 -54 -43 -98 -96 -98zM241 484c25 0 45 18 45 46c0 24 -20 46 -45 46c-26 0 -44 -22 -44 -46c0 -28 18 -46 44 -46zM238 -8c-121 0 -188 63 -188 161v247h128v-230c0 -38 26 -65 60 -65
c35 0 61 27 61 65v230h127v-247c0 -98 -67 -161 -188 -161z" />
    <glyph glyph-name="v" unicode="v" horiz-adv-x="432" 
d="M300 400h137l-162 -400h-120l-160 400h136l85 -263z" />
    <glyph glyph-name="w" unicode="w" horiz-adv-x="684" 
d="M546 400h142l-136 -400h-135l-75 226l-75 -226h-134l-138 400h145l67 -265l85 265h100l86 -266z" />
    <glyph glyph-name="wacute" unicode="&#x1e83;" horiz-adv-x="684" 
d="M503 600l-125 -149h-84l88 149h121zM546 400h142l-136 -400h-135l-75 226l-75 -226h-134l-138 400h145l67 -265l85 265h100l86 -266z" />
    <glyph glyph-name="wcircumflex" unicode="&#x175;" horiz-adv-x="684" 
d="M343 529l-57 -78h-80l98 149h77l99 -149h-80zM546 400h142l-136 -400h-135l-75 226l-75 -226h-134l-138 400h145l67 -265l85 265h100l86 -266z" />
    <glyph glyph-name="wdieresis" unicode="&#x1e85;" horiz-adv-x="684" 
d="M259 470c-32 0 -60 28 -60 60c0 34 28 60 60 60c33 0 61 -26 61 -60c0 -32 -28 -60 -61 -60zM427 470c-32 0 -60 28 -60 60c0 34 28 60 60 60c34 0 60 -26 60 -60c0 -32 -26 -60 -60 -60zM546 400h142l-136 -400h-135l-75 226l-75 -226h-134l-138 400h145l67 -265l85 265
h100l86 -266z" />
    <glyph glyph-name="wgrave" unicode="&#x1e81;" horiz-adv-x="684" 
d="M392 451h-84l-125 149h121zM546 400h142l-136 -400h-135l-75 226l-75 -226h-134l-138 400h145l67 -265l85 265h100l86 -266z" />
    <glyph glyph-name="x" unicode="x" horiz-adv-x="481" 
d="M486 400l-169 -201l169 -199h-153l-92 109l-92 -109h-154l169 200l-169 200h152l93 -110l93 110h153z" />
    <glyph glyph-name="y" unicode="y" horiz-adv-x="454" 
d="M326 400h132l-256 -640h-134l94 231l-167 409h133l100 -265z" />
    <glyph glyph-name="yacute" unicode="&#xfd;" horiz-adv-x="454" 
d="M386 600l-125 -149h-84l88 149h121zM326 400h132l-256 -640h-134l94 231l-167 409h133l100 -265z" />
    <glyph glyph-name="ycircumflex" unicode="&#x177;" horiz-adv-x="454" 
d="M226 529l-57 -78h-80l98 149h77l99 -149h-80zM326 400h132l-256 -640h-134l94 231l-167 409h133l100 -265z" />
    <glyph glyph-name="ydieresis" unicode="&#xff;" horiz-adv-x="454" 
d="M142 470c-32 0 -60 28 -60 60c0 34 28 60 60 60c33 0 61 -26 61 -60c0 -32 -28 -60 -61 -60zM310 470c-32 0 -60 28 -60 60c0 34 28 60 60 60c34 0 60 -26 60 -60c0 -32 -26 -60 -60 -60zM326 400h132l-256 -640h-134l94 231l-167 409h133l100 -265z" />
    <glyph glyph-name="ygrave" unicode="&#x1ef3;" horiz-adv-x="454" 
d="M275 451h-84l-125 149h121zM326 400h132l-256 -640h-134l94 231l-167 409h133l100 -265z" />
    <glyph glyph-name="z" unicode="z" horiz-adv-x="391" 
d="M377 400l-168 -294h162v-106h-350l167 294h-146v106h335z" />
    <glyph glyph-name="zacute" unicode="&#x17a;" horiz-adv-x="391" 
d="M368 600l-125 -149h-84l88 149h121zM377 400l-168 -294h162v-106h-350l167 294h-146v106h335z" />
    <glyph glyph-name="zcaron" unicode="&#x17e;" horiz-adv-x="391" 
d="M246 451h-77l-98 149h80l57 -78l57 78h80zM377 400l-168 -294h162v-106h-350l167 294h-146v106h335z" />
    <glyph glyph-name="zdotaccent" unicode="&#x17c;" horiz-adv-x="391" 
d="M208 451c-38 0 -70 32 -70 70c0 39 32 70 70 70c39 0 71 -31 71 -70c0 -38 -32 -70 -71 -70zM377 400l-168 -294h162v-106h-350l167 294h-146v106h335z" />
    <glyph glyph-name="ordfeminine" unicode="&#xaa;" horiz-adv-x="325" 
d="M225 600h61v-240h-61v37c-19 -26 -49 -42 -85 -42c-66 0 -119 55 -119 125c0 69 53 125 119 125c36 0 66 -16 85 -42v37zM153 408c40 0 72 32 72 72s-32 72 -72 72s-72 -32 -72 -72s32 -72 72 -72z" />
    <glyph glyph-name="ordmasculine" unicode="&#xba;" horiz-adv-x="306" 
d="M153 355c-74 0 -132 55 -132 125c0 69 58 125 132 125s133 -56 133 -125c0 -70 -59 -125 -133 -125zM153 408c40 0 72 32 72 72s-32 72 -72 72s-72 -32 -72 -72s32 -72 72 -72z" />
    <glyph glyph-name="uni0394" unicode="&#x394;" horiz-adv-x="645" 
d="M396 600l241 -600h-143h-406h-81l241 600h148zM194 114h257l-128 338z" />
    <glyph glyph-name="uni03A9" unicode="&#x3a9;" horiz-adv-x="691" 
d="M41 0v106h91v3c-35 39 -78 123 -78 218c0 155 115 276 293 276c187 0 290 -133 290 -276c0 -84 -36 -170 -81 -218v-3h93v-106h-265v80c63 36 112 112 112 222c0 113 -54 193 -147 193c-92 0 -155 -75 -155 -194c0 -108 53 -191 114 -221v-80h-267z" />
    <glyph glyph-name="uni03BC" unicode="&#x3bc;" horiz-adv-x="527" 
d="M328 400h127v-400h-127v42c-29 -31 -69 -50 -114 -50c-23 0 -44 5 -64 14v-206h-93v600h127v-229c0 -38 30 -68 68 -68c43 0 76 30 76 68v229z" />
    <glyph glyph-name="pi" unicode="&#x3c0;" horiz-adv-x="571" 
d="M54 0c30 94 56 253 58 350c-44 0 -73 -3 -95 -9l-13 74c23 18 72 29 154 29h399l-9 -94h-67v-216c0 -63 4 -106 11 -134h-115c-12 18 -16 66 -16 127v223h-132c-3 -97 -27 -271 -59 -350h-116z" />
    <glyph glyph-name="zero" unicode="0" horiz-adv-x="548" 
d="M274 -8c-150 0 -225 125 -225 308s75 308 225 308c148 0 224 -125 224 -308s-76 -308 -224 -308zM274 105c72 0 96 78 96 195s-24 195 -96 195c-73 0 -97 -78 -97 -195s24 -195 97 -195z" />
    <glyph glyph-name="one" unicode="1" horiz-adv-x="334" 
d="M116 0v487h-91v113h219v-600h-128z" />
    <glyph glyph-name="two" unicode="2" horiz-adv-x="458" 
d="M218 113h208v-113h-440l235 301c63 80 70 98 70 125c0 54 -36 69 -66 69c-40 0 -71 -29 -65 -76h-124c-10 112 86 190 195 190c104 0 184 -72 184 -171c0 -70 -24 -109 -103 -208z" />
    <glyph glyph-name="three" unicode="3" horiz-adv-x="492" 
d="M255 359c105 1 187 -59 187 -172c0 -108 -88 -195 -203 -195c-109 0 -198 77 -198 174l127 2c0 -32 33 -56 71 -56c47 0 77 34 77 79c0 46 -31 76 -75 76h-173h-6l168 220h-189v113h406z" />
    <glyph glyph-name="four" unicode="4" horiz-adv-x="513" 
d="M472 240v-114h-49v-126h-128v126h-284l250 474h162v-360h49zM172 240h123v243z" />
    <glyph glyph-name="five" unicode="5" horiz-adv-x="509" 
d="M281 406c111 0 187 -86 187 -200c0 -124 -94 -214 -226 -214c-76 0 -163 33 -207 78l9 120h23c53 -67 114 -81 168 -81c63 0 105 39 105 92c0 52 -39 92 -91 92c-33 0 -71 -17 -94 -42l-101 61l26 286h348v-113h-247l-10 -120c28 25 63 41 110 41z" />
    <glyph glyph-name="six" unicode="6" horiz-adv-x="531" 
d="M303 412c103 -14 187 -102 187 -209c-1 -120 -103 -210 -224 -211c-124 0 -224 92 -224 211c0 49 21 93 47 132l192 265h146l-143 -187c6 0 13 0 19 -1zM266 102c59 0 100 44 99 100c0 58 -40 103 -99 103c-60 -1 -98 -45 -98 -103c-1 -56 38 -101 98 -100z" />
    <glyph glyph-name="seven" unicode="7" horiz-adv-x="453" 
d="M27 600h414v-94l-268 -506h-140l268 487h-274v113z" />
    <glyph glyph-name="eight" unicode="8" horiz-adv-x="486" 
d="M369 334c54 -32 87 -86 87 -152c0 -108 -90 -190 -213 -190s-213 82 -213 190c0 66 33 120 87 152c-32 28 -51 68 -51 114c0 91 74 160 177 160c102 0 176 -69 176 -160c0 -46 -19 -86 -50 -114zM174 437c0 -40 30 -70 69 -70s69 30 69 70c0 39 -30 69 -69 69
s-69 -30 -69 -69zM243 104c48 0 84 39 84 88s-36 84 -84 84s-84 -35 -84 -84s36 -88 84 -88z" />
    <glyph glyph-name="nine" unicode="9" horiz-adv-x="531" 
d="M266 608c123 0 224 -92 224 -211c0 -49 -21 -93 -47 -132l-192 -265h-146l145 187c-7 0 -14 0 -21 1c-104 14 -187 102 -187 209c0 120 103 210 224 211zM266 295c60 0 99 45 98 103c0 56 -39 101 -98 100c-60 0 -100 -44 -100 -100c1 -58 40 -102 100 -103z" />
    <glyph glyph-name="fraction" unicode="&#x2044;" horiz-adv-x="472" 
d="M-22 0l418 600h98l-418 -600h-98z" />
    <glyph glyph-name="onehalf" unicode="&#xbd;" horiz-adv-x="820" 
d="M171 200h-86v325h-60v75h146v-400zM527 599h98l-418 -600h-98zM649 74h139v-75h-293l156 201c42 53 47 65 47 83c0 36 -24 46 -44 46c-27 0 -47 -19 -43 -51h-83c-7 75 57 127 130 127c69 0 123 -48 123 -114c0 -47 -16 -73 -69 -139z" />
    <glyph glyph-name="onequarter" unicode="&#xbc;" horiz-adv-x="839" 
d="M171 200h-86v325h-60v75h146v-400zM541 598h98l-418 -600h-98zM798 160v-76h-33v-84h-85v84h-190l167 316h108v-240h33zM598 160h82v163z" />
    <glyph glyph-name="threequarters" unicode="&#xbe;" horiz-adv-x="857" 
d="M309 327c0 -72 -59 -130 -136 -130c-72 0 -132 51 -132 116l85 1c0 -21 22 -37 47 -37c32 0 52 22 52 52c0 31 -21 51 -50 51h-116h-4l112 147h-126v75h271l-128 -160c71 0 125 -40 125 -115zM585 598h98l-418 -600h-98zM816 160v-76h-33v-84h-85v84h-190l167 316h108
v-240h33zM616 160h82v163z" />
    <glyph glyph-name="uni00B9" unicode="&#xb9;" horiz-adv-x="217" 
d="M67 300v247h-42v53h102v-300h-60z" />
    <glyph glyph-name="uni00B2" unicode="&#xb2;" horiz-adv-x="295" 
d="M145 369h100v-54h-212l114 145c30 39 33 47 33 60c0 26 -17 34 -32 34c-19 0 -34 -14 -31 -37h-60c-4 54 42 92 94 92c50 0 89 -35 89 -83c0 -34 -12 -52 -50 -100z" />
    <glyph glyph-name="uni00B3" unicode="&#xb3;" horiz-adv-x="296" 
d="M152 483c52 0 91 -29 91 -83c0 -52 -42 -94 -98 -94c-52 0 -95 37 -95 84l61 1c0 -15 16 -27 34 -27c23 0 37 16 37 38s-15 37 -36 37h-83h-3l81 106h-91v54h195z" />
    <glyph glyph-name="asterisk" unicode="*" horiz-adv-x="307" 
d="M123 379l-53 32l47 62l-78 -11v62l78 -10l-47 62l53 32l30 -74l31 74l54 -32l-48 -62l78 10v-62l-78 11l48 -62l-54 -32l-31 73z" />
    <glyph glyph-name="backslash" unicode="\" horiz-adv-x="561" 
d="M458 -240l-474 925h119l474 -925h-119z" />
    <glyph glyph-name="periodcentered" unicode="&#xb7;" horiz-adv-x="245" 
d="M122 237c-27 0 -51 22 -51 51c0 27 24 51 51 51s52 -24 52 -51c0 -29 -25 -51 -52 -51z" />
    <glyph glyph-name="bullet" unicode="&#x2022;" horiz-adv-x="502" 
d="M251 104c-88 0 -164 72 -164 163c0 89 76 164 164 164s163 -75 163 -164c0 -91 -75 -163 -163 -163z" />
    <glyph glyph-name="colon" unicode=":" horiz-adv-x="288" 
d="M144 267c-38 0 -70 32 -70 71c0 38 32 70 70 70s70 -32 70 -70c0 -39 -32 -71 -70 -71zM144 -8c-38 0 -70 32 -70 70c0 39 32 71 70 71s70 -32 70 -71c0 -38 -32 -70 -70 -70z" />
    <glyph glyph-name="comma" unicode="," horiz-adv-x="246" 
d="M81 -142h-78l95 247h123z" />
    <glyph glyph-name="ellipsis" unicode="&#x2026;" horiz-adv-x="804" 
d="M135 -8c-39 0 -72 33 -72 73s33 73 72 73c40 0 74 -33 74 -73s-34 -73 -74 -73zM404 -8c-39 0 -72 33 -72 73s33 73 72 73c40 0 74 -33 74 -73s-34 -73 -74 -73zM673 -8c-39 0 -72 33 -72 73s33 73 72 73c40 0 74 -33 74 -73s-34 -73 -74 -73z" />
    <glyph glyph-name="exclam" unicode="!" horiz-adv-x="283" 
d="M93 208l-15 407h127l-16 -407h-96zM141 -8c-38 0 -70 32 -70 70c0 39 32 71 70 71c40 0 71 -32 71 -71c0 -38 -31 -70 -71 -70z" />
    <glyph glyph-name="exclamdown" unicode="&#xa1;" horiz-adv-x="283" 
d="M141 259c-38 0 -70 32 -70 71c0 38 32 70 70 70c40 0 71 -32 71 -70c0 -39 -31 -71 -71 -71zM78 -240l15 432h96l16 -432h-127z" />
    <glyph glyph-name="numbersign" unicode="#" horiz-adv-x="686" 
d="M147 0l18 130h-113l12 89h113l22 147h-114l15 88h111l19 133h89l-18 -133h130l19 133h89l-19 -133h114l-14 -88h-112l-21 -147h112l-12 -89h-112l-19 -130h-89l18 130h-132l-17 -130h-89zM267 219h130l22 147h-132z" />
    <glyph glyph-name="period" unicode="." horiz-adv-x="271" 
d="M135 -8c-39 0 -72 33 -72 73s33 73 72 73c40 0 74 -33 74 -73s-34 -73 -74 -73z" />
    <glyph glyph-name="question" unicode="?" horiz-adv-x="522" 
d="M218 181v50c0 169 145 86 145 207c0 42 -39 76 -88 76c-60 0 -98 -46 -88 -103h-112c-12 120 76 213 200 213c112 0 199 -82 199 -186c0 -168 -142 -126 -142 -200v-57h-114zM278 -8c-39 0 -71 31 -71 70s32 71 71 71s70 -32 70 -71s-31 -70 -70 -70z" />
    <glyph glyph-name="questiondown" unicode="&#xbf;" horiz-adv-x="527" 
d="M244 276c-39 0 -70 30 -70 70c0 39 31 70 70 70s70 -31 70 -70c0 -40 -31 -70 -70 -70zM247 -208c-112 0 -200 82 -200 187c0 167 143 125 143 200v47h114v-40c0 -170 -145 -86 -145 -207c0 -43 39 -77 88 -77c59 0 98 46 87 104h113c12 -120 -76 -214 -200 -214z" />
    <glyph glyph-name="quotedbl" unicode="&#x22;" horiz-adv-x="435" 
d="M87 336l-16 272h120l-16 -272h-88zM261 336l-16 272h119l-15 -272h-88z" />
    <glyph glyph-name="quotesingle" unicode="'" horiz-adv-x="262" 
d="M87 368l-16 240h120l-16 -240h-88z" />
    <glyph glyph-name="semicolon" unicode=";" horiz-adv-x="296" 
d="M147 267c-38 0 -70 32 -70 71c0 38 32 70 70 70s70 -32 70 -70c0 -39 -32 -71 -70 -71zM99 -142h-78l95 247h123z" />
    <glyph glyph-name="slash" unicode="/" horiz-adv-x="561" 
d="M-16 -240l474 925h119l-474 -925h-119z" />
    <glyph glyph-name="underscore" unicode="_" horiz-adv-x="543" 
d="M31 -87v87h480v-87h-480z" />
    <glyph glyph-name="braceleft" unicode="{" horiz-adv-x="298" 
d="M203 -262c-59 0 -104 56 -104 128v193c0 86 -10 97 -60 118v74c49 21 60 32 60 118v193c0 72 45 129 104 129h58v-73c-51 0 -66 4 -66 -48v-213c0 -65 -11 -110 -42 -143c31 -33 42 -78 42 -143v-219c0 -33 8 -40 66 -40v-74h-58z" />
    <glyph glyph-name="braceright" unicode="}" horiz-adv-x="298" 
d="M37 -262v74c58 0 65 7 65 40v219c0 65 12 110 43 143c-31 33 -43 78 -43 143v213c0 52 -14 48 -65 48v73h58c59 0 103 -57 103 -129v-193c0 -86 11 -97 60 -118v-74c-49 -21 -60 -32 -60 -118v-193c0 -72 -44 -128 -103 -128h-58z" />
    <glyph glyph-name="bracketleft" unicode="[" horiz-adv-x="329" 
d="M59 -200v906h214v-70h-103v-766h103v-70h-214z" />
    <glyph glyph-name="bracketright" unicode="]" horiz-adv-x="329" 
d="M56 -200v70h103v766h-103v70h213v-906h-213z" />
    <glyph glyph-name="parenleft" unicode="(" horiz-adv-x="346" 
d="M303 -237c-139 0 -248 120 -248 471c0 353 109 474 248 474v-91c-76 0 -136 -95 -136 -383c0 -286 60 -379 136 -380v-91z" />
    <glyph glyph-name="parenright" unicode=")" horiz-adv-x="346" 
d="M43 -237v91c76 1 136 94 136 380c0 288 -60 383 -136 383v91c139 0 247 -121 247 -474c0 -351 -108 -471 -247 -471z" />
    <glyph glyph-name="emdash" unicode="&#x2014;" horiz-adv-x="800" 
d="M0 164v88h800v-88h-800z" />
    <glyph glyph-name="endash" unicode="&#x2013;" horiz-adv-x="525" 
d="M63 164v88h400v-88h-400z" />
    <glyph glyph-name="hyphen" unicode="-" horiz-adv-x="405" 
d="M63 164v88h280v-88h-280z" />
    <glyph glyph-name="uni00AD" unicode="&#xad;" horiz-adv-x="453" 
d="M63 164v88h280v-88h-280z" />
    <glyph glyph-name="guillemotleft" unicode="&#xab;" horiz-adv-x="590" 
d="M210 76l-122 147l122 147h100l-122 -147l122 -147h-100zM401 76l-122 147l122 147h101l-121 -147l121 -147h-101z" />
    <glyph glyph-name="guillemotright" unicode="&#xbb;" horiz-adv-x="590" 
d="M87 76l122 147l-122 147h100l122 -147l-122 -147h-100zM279 76l121 147l-121 147h101l121 -147l-121 -147h-101z" />
    <glyph glyph-name="guilsinglleft" unicode="&#x2039;" horiz-adv-x="317" 
d="M162 76l-122 147l122 147h100l-122 -147l122 -147h-100z" />
    <glyph glyph-name="guilsinglright" unicode="&#x203a;" horiz-adv-x="317" 
d="M55 76l122 147l-122 147h100l122 -147l-122 -147h-100z" />
    <glyph glyph-name="quotedblbase" unicode="&#x201e;" horiz-adv-x="408" 
d="M100 -156h-66l68 242h106zM277 -156h-66l68 242h106z" />
    <glyph glyph-name="quotedblleft" unicode="&#x201c;" horiz-adv-x="419" 
d="M151 608h66l-68 -242h-106zM322 608h66l-68 -242h-106z" />
    <glyph glyph-name="quotedblright" unicode="&#x201d;" horiz-adv-x="401" 
d="M89 416h-66l68 242h106zM261 416h-66l68 242h106z" />
    <glyph glyph-name="quoteleft" unicode="&#x2018;" horiz-adv-x="218" 
d="M136 608h66l-68 -242h-106z" />
    <glyph glyph-name="quoteright" unicode="&#x2019;" horiz-adv-x="188" 
d="M105 372h-66l68 242h106z" />
    <glyph glyph-name="quotesinglbase" unicode="&#x201a;" horiz-adv-x="227" 
d="M100 -156h-66l68 242h106z" />
    <glyph glyph-name="space" unicode=" " horiz-adv-x="240" 
 />
    <glyph glyph-name="cent" unicode="&#xa2;" horiz-adv-x="400" 
d="M261 377c-54 0 -96 -43 -96 -97s42 -97 96 -97c30 0 62 6 84 25v-122c-23 -8 -48 -13 -74 -14v-73h-74v81c-93 26 -160 105 -160 200s67 174 160 200v81h74v-73c26 -1 51 -6 74 -14v-121c-22 18 -54 24 -84 24z" />
    <glyph glyph-name="currency" unicode="&#xa4;" horiz-adv-x="539" 
d="M124 77l-66 70l42 43c-37 61 -37 140 0 201l-42 42l67 70l44 -44c61 37 140 38 201 0l43 43l68 -68l-42 -42c37 -62 37 -141 0 -203l42 -42l-67 -70l-44 44c-61 -37 -141 -37 -202 0zM196 218c41 -40 106 -40 146 0c39 40 39 105 -1 144c-39 40 -104 40 -144 0
c-39 -40 -40 -105 -1 -144z" />
    <glyph glyph-name="dollar" unicode="$" horiz-adv-x="474" 
d="M451 170c0 -94 -68 -156 -156 -173v-61h-113v63c-76 18 -135 67 -166 127l109 68c22 -47 65 -78 120 -78c46 0 74 22 74 55c0 105 -277 56 -277 260c0 98 65 154 140 171v62h113v-64c49 -13 92 -40 124 -77l-88 -84c-30 33 -64 52 -98 52c-32 0 -58 -16 -58 -50
c0 -104 276 -49 276 -271z" />
    <glyph glyph-name="Euro" unicode="&#x20ac;" horiz-adv-x="588" 
d="M194 206c33 -61 96 -101 171 -101c45 0 100 23 134 55v-133c-43 -22 -92 -35 -134 -35c-140 0 -255 89 -294 214h-62v63h49c0 10 -1 21 -1 31s1 21 1 31h-49v63h62c39 125 154 214 294 214c44 0 95 -14 141 -38l-34 -110c-31 22 -72 35 -107 35c-75 0 -138 -40 -171 -101
h257l-18 -63h-260c-1 -10 -2 -20 -2 -31s1 -21 2 -31h241l-19 -63h-201z" />
    <glyph glyph-name="florin" unicode="&#x192;" horiz-adv-x="403" 
d="M331 518c-41 0 -69 -28 -76 -73l-7 -45h107l-15 -95h-107l-80 -505h-114l80 505h-67l15 95h67l10 62c13 84 91 146 174 146c29 0 54 -8 63 -15l-10 -87c-10 8 -27 12 -40 12z" />
    <glyph glyph-name="sterling" unicode="&#xa3;" horiz-adv-x="526" 
d="M187 88h304v-88h-399v250h-64v81h64v73c0 119 83 204 199 204c90 0 177 -67 194 -157l-93 -40c2 57 -48 101 -101 101c-63 0 -104 -41 -104 -108v-73h149v-81h-149v-162z" />
    <glyph glyph-name="yen" unicode="&#xa5;" horiz-adv-x="579" 
d="M547 600l-193 -292h128v-79h-137v-57h137v-74h-137v-98h-111v98h-136v74h136v57h-137v79h127l-193 292h118l141 -221l140 221h117z" />
    <glyph glyph-name="approxequal" unicode="&#x2248;" horiz-adv-x="491" 
d="M326 250c-65 0 -100 44 -118 62c-15 15 -25 17 -34 17c-32 -1 -47 -31 -48 -73h-88c2 96 50 161 137 161c43 0 74 -16 106 -57c8 -10 18 -24 38 -24c26 0 44 25 46 72h87c-3 -90 -45 -158 -126 -158zM326 71c-65 0 -101 44 -118 62c-11 12 -19 17 -34 17
c-33 -2 -47 -31 -48 -74h-88c2 99 52 163 137 163c41 0 72 -16 106 -58c7 -9 18 -25 38 -25c26 0 44 25 46 73h87c-3 -89 -45 -158 -126 -158z" />
    <glyph glyph-name="asciitilde" unicode="~" horiz-adv-x="472" 
d="M317 120c-65 0 -100 45 -118 62c-15 14 -25 17 -34 17c-35 0 -48 -37 -49 -73h-87c-5 95 47 161 138 161c49 0 76 -19 104 -57c9 -12 20 -25 38 -25c27 0 50 27 47 73h86c9 -89 -45 -158 -125 -158z" />
    <glyph glyph-name="divide" unicode="&#xf7;" horiz-adv-x="575" 
d="M287 319c-33 0 -62 27 -62 62c0 33 29 63 62 63s63 -30 63 -63c0 -35 -30 -62 -63 -62zM47 188v64h480v-64h-480zM287 -4c-33 0 -62 28 -62 63c0 33 29 62 62 62s63 -29 63 -62c0 -35 -30 -63 -63 -63z" />
    <glyph glyph-name="emptyset" unicode="&#x2205;" horiz-adv-x="653" 
d="M511 384c35 -41 55 -94 55 -151c0 -132 -108 -239 -240 -239c-57 0 -110 20 -151 54l-35 -35l-33 33l35 35c-34 41 -55 94 -55 152c0 132 107 239 239 239c58 0 110 -20 152 -54l35 35l33 -34zM188 233c0 -30 9 -58 25 -81l194 195c-23 16 -51 25 -81 25
c-77 0 -138 -62 -138 -139zM326 94c78 0 139 61 139 139c0 30 -9 57 -25 80l-194 -194c23 -16 50 -25 80 -25z" />
    <glyph glyph-name="equal" unicode="=" horiz-adv-x="575" 
d="M47 252v80h480v-80h-480zM47 92v80h480v-80h-480z" />
    <glyph glyph-name="greater" unicode="&#x3e;" horiz-adv-x="584" 
d="M71 579l442 -222v-113l-442 -223v105l346 175l-346 174v104z" />
    <glyph glyph-name="greaterequal" unicode="&#x2265;" horiz-adv-x="632" 
d="M95 595l442 -190v-113l-442 -191v105l336 143l-336 142v104zM95 0v72h442v-72h-442z" />
    <glyph glyph-name="infinity" unicode="&#x221e;" horiz-adv-x="643" 
d="M175 99c-73 0 -125 55 -128 134c3 79 55 133 128 133c47 0 99 -27 147 -74c48 48 99 74 146 74c77 0 125 -49 128 -133c-3 -84 -51 -134 -128 -134c-47 0 -98 27 -146 75c-48 -48 -100 -75 -147 -75zM175 179c26 0 59 19 93 54c-34 35 -67 53 -93 53s-48 -21 -48 -53
s22 -54 48 -54zM468 179c27 0 48 20 48 54s-21 53 -48 53c-26 0 -59 -19 -93 -53c34 -34 67 -54 93 -54z" />
    <glyph glyph-name="integral" unicode="&#x222b;" horiz-adv-x="389" 
d="M94 -151c-53 0 -81 47 -58 105h62c-4 -31 -7 -39 8 -39c7 0 11 5 13 14l92 584c8 45 47 80 92 80c52 0 81 -47 57 -106h-62c4 31 8 40 -6 40c-8 0 -13 -5 -15 -14l-92 -584c-7 -46 -46 -80 -91 -80z" />
    <glyph glyph-name="less" unicode="&#x3c;" horiz-adv-x="584" 
d="M513 579v-104l-346 -174l346 -175v-105l-442 223v113z" />
    <glyph glyph-name="lessequal" unicode="&#x2264;" horiz-adv-x="632" 
d="M537 595v-104l-336 -142l336 -143v-105l-442 191v113zM95 0v72h442v-72h-442z" />
    <glyph glyph-name="logicalnot" unicode="&#xac;" horiz-adv-x="657" 
d="M506 76v205h-435v81h515v-286h-80z" />
    <glyph glyph-name="uni00B5" unicode="&#xb5;" horiz-adv-x="500" 
d="M338 400h110v-400h-110v46c-30 -33 -71 -54 -118 -54c-28 0 -54 7 -76 20v-212h-81v600h110v-233c0 -44 35 -79 79 -79c48 0 86 35 86 79v233z" />
    <glyph glyph-name="minus" unicode="&#x2212;" horiz-adv-x="556" 
d="M47 207v85h462v-85h-462z" />
    <glyph glyph-name="multiply" unicode="&#xd7;" horiz-adv-x="613" 
d="M525 389l-141 -141l141 -141l-68 -69l-142 141l-141 -141l-69 69l141 141l-141 141l69 69l141 -141l142 141z" />
    <glyph glyph-name="notequal" unicode="&#x2260;" horiz-adv-x="575" 
d="M527 252h-168l-68 -80h236v-80h-305l-72 -84h-69l72 84h-106v80h175l68 80h-243v80h312l65 76h69l-65 -76h99v-80z" />
    <glyph glyph-name="partialdiff" unicode="&#x2202;" horiz-adv-x="475" 
d="M135 570c168 39 302 -100 301 -308c-1 -148 -95 -262 -217 -262c-143 0 -212 105 -158 247c45 120 145 174 242 149c-32 84 -96 124 -168 86v88zM324 262c0 15 0 30 -2 44c-65 36 -123 6 -158 -87c-27 -72 0 -139 55 -139s104 84 105 182z" />
    <glyph glyph-name="percent" unicode="%" horiz-adv-x="691" 
d="M174 313c-73 0 -132 66 -132 147c0 82 59 148 132 148c72 0 130 -66 130 -148c0 -81 -58 -147 -130 -147zM78 0l402 600h132l-403 -600h-131zM174 408c17 0 35 23 35 52c0 30 -18 53 -35 53c-19 0 -36 -23 -36 -53c0 -29 17 -52 36 -52zM517 -8c-73 0 -131 66 -131 148
c0 81 58 147 131 147s131 -66 131 -147c0 -82 -58 -148 -131 -148zM517 87c18 0 36 23 36 53c0 29 -18 52 -36 52s-35 -23 -35 -52c0 -30 17 -53 35 -53z" />
    <glyph glyph-name="perthousand" unicode="&#x2030;" horiz-adv-x="990" 
d="M174 313c-73 0 -132 66 -132 147c0 82 59 148 132 148c72 0 130 -66 130 -148c0 -81 -58 -147 -130 -147zM78 0l402 600h132l-403 -600h-131zM174 408c17 0 35 23 35 52c0 30 -18 53 -35 53c-19 0 -36 -23 -36 -53c0 -29 17 -52 36 -52zM517 -8c-73 0 -131 66 -131 148
c0 81 58 147 131 147s131 -66 131 -147c0 -82 -58 -148 -131 -148zM819 -8c-73 0 -131 66 -131 148c0 81 58 147 131 147s132 -66 132 -147c0 -82 -59 -148 -132 -148zM517 87c18 0 36 23 36 53c0 29 -18 52 -36 52s-35 -23 -35 -52c0 -30 17 -53 35 -53zM819 87
c18 0 35 23 35 53c0 29 -17 52 -35 52s-35 -23 -35 -52c0 -30 17 -53 35 -53z" />
    <glyph glyph-name="plus" unicode="+" horiz-adv-x="639" 
d="M271 0v199h-200v98h200v199h97v-199h199v-98h-199v-199h-97z" />
    <glyph glyph-name="plusminus" unicode="&#xb1;" horiz-adv-x="639" 
d="M361 370h239v-83h-239v-144h-82v144h-240v83h240v144h82v-144zM39 0v74h561v-74h-561z" />
    <glyph glyph-name="product" unicode="&#x220f;" horiz-adv-x="625" 
d="M586 562v-87h-51v-571h-87v571h-270v-571h-88v571h-51v87h547z" />
    <glyph glyph-name="radical" unicode="&#x221a;" horiz-adv-x="614" 
d="M199 -62l-86 265h-58v80h115l73 -222l266 555l73 -31l-310 -647h-73z" />
    <glyph glyph-name="summation" unicode="&#x2211;" horiz-adv-x="615" 
d="M71 -94v77l268 251l-268 250v78h473v-95h-314l243 -233l-243 -234h314v-95z" />
    <glyph glyph-name="lozenge" unicode="&#x25ca;" horiz-adv-x="626" 
d="M313 42l-242 240l242 242l241 -241zM313 180l102 103l-102 102l-103 -103z" />
    <glyph glyph-name="uniF8FF" unicode="&#xf8ff;" horiz-adv-x="751" 
d="M375 0c-167 0 -304 137 -304 304c0 168 137 304 304 304c168 0 304 -136 304 -304c0 -167 -136 -304 -304 -304zM375 29c152 0 275 124 275 275c0 152 -123 275 -275 275c-151 0 -275 -123 -275 -275c0 -151 124 -275 275 -275zM534 174c-3 0 -7 1 -9 4l-116 116
c-6 6 -6 15 0 20l116 116c5 6 14 6 20 0c5 -5 5 -15 0 -20l-106 -106l106 -106c5 -5 5 -13 0 -20c-3 -3 -7 -4 -11 -4zM216 174c-8 0 -14 6 -14 14v232c0 8 6 14 14 14s14 -6 14 -14v-232c0 -8 -6 -14 -14 -14zM375 174c-8 0 -14 6 -14 14v232c0 8 6 14 14 14s15 -6 15 -14
v-232c0 -8 -7 -14 -15 -14zM259 290c-8 0 -14 6 -14 14s6 14 14 14h73c8 0 14 -6 14 -14s-6 -14 -14 -14h-73z" />
    <glyph glyph-name="bar" unicode="|" horiz-adv-x="260" 
d="M90 -120v720h79v-720h-79z" />
    <glyph glyph-name="brokenbar" unicode="&#xa6;" horiz-adv-x="260" 
d="M90 312v288h79v-288h-79zM90 -120v288h79v-288h-79z" />
    <glyph glyph-name="at" unicode="@" horiz-adv-x="503" 
d="M432 119h-73v15c-19 -15 -46 -24 -69 -24c-54 0 -98 44 -98 101c0 56 44 100 97 100c25 0 52 -10 70 -26v8c0 40 -42 73 -96 73c-79 0 -143 -65 -143 -145c0 -84 69 -148 155 -148h157v-73h-157c-128 0 -228 97 -228 221c0 121 96 218 216 218c95 0 169 -64 169 -146
v-174zM321 171c16 0 30 8 38 20v40c-8 12 -22 20 -38 20c-25 0 -44 -17 -44 -40s19 -40 44 -40z" />
    <glyph glyph-name="ampersand" unicode="&#x26;" horiz-adv-x="580" 
d="M558 349v-106h-65v-53c0 -110 -87 -191 -210 -191c-117 0 -209 73 -209 174c0 50 22 94 58 126c-37 34 -59 81 -59 134c0 96 71 173 166 166h126v-112h-102c-31 -2 -62 -25 -62 -63c0 -42 37 -75 83 -75h81v86h128v-86h65zM281 111c53 0 84 33 84 79v53h-97
c-41 0 -74 -33 -74 -68c0 -39 41 -64 87 -64z" />
    <glyph glyph-name="paragraph" unicode="&#xb6;" horiz-adv-x="531" 
d="M234 -120v452h-12c-88 0 -143 47 -143 134c0 88 55 134 143 134h75v-720h-63zM372 -120v720h64v-720h-64z" />
    <glyph glyph-name="copyright" unicode="&#xa9;" horiz-adv-x="691" 
d="M345 -8c-169 0 -308 138 -308 308s139 308 308 308c170 0 308 -138 308 -308s-138 -308 -308 -308zM345 59c136 0 241 106 241 241s-105 241 -241 241c-135 0 -241 -106 -241 -241s106 -241 241 -241zM346 155c-89 0 -148 61 -148 144s59 143 148 143
c80 0 134 -48 146 -117h-88c-9 24 -31 39 -58 39c-37 0 -63 -28 -63 -65s26 -65 63 -66c27 1 49 16 58 40h88c-12 -69 -66 -118 -146 -118z" />
    <glyph glyph-name="registered" unicode="&#xae;" horiz-adv-x="691" 
d="M345 608c170 0 308 -138 308 -308s-138 -308 -308 -308c-169 0 -308 138 -308 308s139 308 308 308zM345 59c136 0 241 106 241 241s-105 241 -241 241c-135 0 -241 -106 -241 -241s106 -241 241 -241zM461 360c0 -36 -21 -67 -51 -83l72 -131h-69l-67 120h-25v-120h-61
v308h105c53 0 96 -42 96 -94zM321 393v-66h44c18 0 34 14 34 33c0 18 -15 33 -34 33h-44z" />
    <glyph glyph-name="section" unicode="&#xa7;" horiz-adv-x="528" 
d="M449 213c18 -18 30 -42 30 -74c0 -78 -98 -137 -211 -137c-95 0 -181 41 -216 98l77 48c21 -34 73 -60 144 -60c62 0 113 19 113 52c0 80 -309 32 -309 192c0 28 9 52 30 74c-19 17 -30 40 -30 70c0 86 93 132 186 132c69 0 139 -25 178 -63l-62 -52
c-26 22 -66 34 -110 34c-53 0 -99 -17 -99 -46c0 -80 309 -30 309 -195c0 -27 -11 -52 -30 -73zM170 335c0 -48 110 -50 199 -79c11 9 17 20 17 31c0 47 -110 49 -199 77c-11 -8 -17 -18 -17 -29z" />
    <glyph glyph-name="trademark" unicode="&#x2122;" horiz-adv-x="668" 
d="M31 547v53h203v-53h-71v-227h-62v227h-70zM536 600h64v-280h-60v185l-94 -139l-94 139v-185h-61v280h67l88 -132z" />
    <glyph glyph-name="degree" unicode="&#xb0;" horiz-adv-x="389" 
d="M194 394c-59 0 -107 47 -107 107s48 107 107 107c60 0 108 -47 108 -107s-48 -107 -108 -107zM194 454c27 0 48 20 48 47s-21 47 -48 47c-26 0 -47 -20 -47 -47s21 -47 47 -47z" />
    <glyph glyph-name="estimated" unicode="&#x212e;" horiz-adv-x="746" 
d="M372 -7c-189 0 -342 137 -342 306c0 171 153 309 342 309c190 0 342 -138 342 -309v-8h-553c-3 0 -5 -1 -5 -3v-168c0 -7 3 -14 7 -19c54 -55 128 -91 210 -91c89 0 167 40 221 102h48c-60 -72 -160 -119 -270 -119zM161 308h425c2 0 3 3 3 6v168c0 7 -3 15 -8 20
c-54 52 -127 88 -208 88s-155 -36 -209 -91c-5 -5 -8 -13 -8 -21v-164c0 -3 2 -6 5 -6z" />
    <glyph glyph-name="uni2113" unicode="&#x2113;" horiz-adv-x="483" 
d="M272 -5c-105 0 -154 60 -168 136c0 3 0 5 -1 8c-16 -10 -30 -22 -47 -34l-32 62c27 20 53 38 77 57v206c0 159 75 225 169 225c95 0 136 -71 136 -153c0 -104 -72 -197 -190 -299l1 -27c2 -56 39 -87 84 -87c51 0 96 40 123 81l50 -50c-51 -92 -127 -125 -202 -125z
M216 306c64 67 110 137 110 197c0 43 -14 72 -51 72c-28 0 -59 -29 -59 -131v-138z" />
    <glyph glyph-name="asciicircum" unicode="^" horiz-adv-x="605" 
d="M581 158h-105l-174 345l-173 -345h-106l223 442h113z" />
    <glyph glyph-name="dagger" unicode="&#x2020;" horiz-adv-x="547" 
d="M443 400v-80h-132v-456h-80v456h-128v80h128v136h80v-136h132z" />
    <glyph glyph-name="daggerdbl" unicode="&#x2021;" horiz-adv-x="547" 
d="M443 320h-132v-233h132v-80h-132v-143h-80v143h-128v80h128v233h-128v80h128v136h80v-136h132v-80z" />
    <glyph glyph-name="uni0308" unicode="&#x308;" 
d="M-277 470c-32 0 -60 28 -60 60c0 34 28 60 60 60c33 0 61 -26 61 -60c0 -32 -28 -60 -61 -60zM-109 470c-32 0 -60 28 -60 60c0 34 28 60 60 60c34 0 60 -26 60 -60c0 -32 -26 -60 -60 -60z" />
    <glyph glyph-name="uni0307" unicode="&#x307;" 
d="M-142 451c-38 0 -70 32 -70 70c0 39 32 70 70 70c39 0 71 -31 71 -70c0 -38 -32 -70 -71 -70z" />
    <glyph glyph-name="gravecomb" unicode="&#x300;" 
d="M-20 451h-84l-125 149h121z" />
    <glyph glyph-name="acutecomb" unicode="&#x301;" 
d="M-212 451l88 149h121l-125 -149h-84z" />
    <glyph glyph-name="uni030B" unicode="&#x30b;" 
d="M-323 451l87 149h120l-124 -149h-83zM-162 451l87 149h120l-124 -149h-83z" />
    <glyph glyph-name="uni0302" unicode="&#x302;" 
d="M-237 451h-80l98 149h77l99 -149h-80l-57 78z" />
    <glyph glyph-name="uni030C" unicode="&#x30c;" 
d="M-227 451l-98 149h80l57 -78l57 78h80l-99 -149h-77z" />
    <glyph glyph-name="uni0306" unicode="&#x306;" 
d="M-283 444c-86 0 -146 46 -146 141h72c0 -35 29 -69 74 -69c46 0 74 34 74 69h72c0 -95 -59 -141 -146 -141z" />
    <glyph glyph-name="uni030A" unicode="&#x30a;" 
d="M-86 432c-54 0 -98 44 -98 98c0 53 44 96 98 96c53 0 96 -43 96 -96c0 -54 -43 -98 -96 -98zM-86 484c25 0 45 18 45 46c0 24 -20 46 -45 46c-26 0 -44 -22 -44 -46c0 -28 18 -46 44 -46z" />
    <glyph glyph-name="tildecomb" unicode="&#x303;" 
d="M-111 473c-33 0 -59 15 -81 47c-6 9 -11 12 -18 12c-17 0 -23 -23 -23 -54h-76c0 75 36 128 96 128c38 0 65 -22 83 -47c4 -8 9 -13 17 -13c18 0 23 21 23 54h76c0 -72 -32 -127 -97 -127z" />
    <glyph glyph-name="uni0304" unicode="&#x304;" 
d="M-268 464v80h241v-80h-241z" />
    <glyph glyph-name="uni0312" unicode="&#x312;" 
d="M-58 636h61l-56 -152h-110z" />
    <glyph glyph-name="dotbelowcomb" unicode="&#x323;" 
d="M-94 -200c-38 0 -70 32 -70 70c0 39 32 71 70 71c39 0 71 -32 71 -71c0 -38 -32 -70 -71 -70z" />
    <glyph glyph-name="uni0326" unicode="&#x326;" 
d="M-137 -80h-61l56 152h110z" />
    <glyph glyph-name="uni0327" unicode="&#x327;" 
d="M-112 -208c-41 0 -82 28 -94 62l56 18c7 -12 24 -22 38 -22c17 0 31 14 31 31c0 28 -28 37 -62 19l-45 26l41 74h59l-27 -46c51 9 92 -24 92 -73c0 -50 -39 -89 -89 -89z" />
    <glyph glyph-name="uni0328" unicode="&#x328;" 
d="M-113 -207c-65 5 -101 48 -101 101c0 64 58 100 123 124l58 -18c-61 -29 -103 -49 -103 -95c0 -33 17 -50 44 -50c26 0 51 16 66 43l40 -56c-33 -34 -81 -52 -127 -49z" />
    <glyph glyph-name="uni0335" unicode="&#x335;" 
d="M-415 166v68h280v-68h-280z" />
    <glyph glyph-name="uni0336" unicode="&#x336;" 
d="M-623 182v52h599v-52h-599z" />
    <glyph glyph-name="uni0337" unicode="&#x337;" 
d="M-422 88l260 273l49 -42l-261 -274z" />
    <glyph glyph-name="uni0338" unicode="&#x338;" 
d="M-526 -2l453 651l78 -47l-453 -650z" />
    <glyph glyph-name="acute" unicode="&#xb4;" horiz-adv-x="77" 
d="M30 451l88 149h121l-125 -149h-84z" />
    <glyph glyph-name="breve" unicode="&#x2d8;" horiz-adv-x="59" 
d="M244 444c-86 0 -146 46 -146 141h72c0 -35 29 -69 74 -69c46 0 74 34 74 69h72c0 -95 -59 -141 -146 -141z" />
    <glyph glyph-name="caron" unicode="&#x2c7;" horiz-adv-x="89" 
d="M141 451l-98 149h80l57 -78l57 78h80l-99 -149h-77z" />
    <glyph glyph-name="cedilla" unicode="&#xb8;" horiz-adv-x="46" 
d="M117 -208c-41 0 -82 28 -94 62l56 18c7 -12 24 -22 38 -22c17 0 31 14 31 31c0 28 -28 37 -62 19l-45 26l41 74h59l-27 -46c51 9 92 -24 92 -73c0 -50 -39 -89 -89 -89z" />
    <glyph glyph-name="circumflex" unicode="&#x2c6;" horiz-adv-x="89" 
d="M123 451h-80l98 149h77l99 -149h-80l-57 78z" />
    <glyph glyph-name="dieresis" unicode="&#xa8;" horiz-adv-x="100" 
d="M109 470c-32 0 -60 28 -60 60c0 34 28 60 60 60c33 0 61 -26 61 -60c0 -32 -28 -60 -61 -60zM277 470c-32 0 -60 28 -60 60c0 34 28 60 60 60c34 0 60 -26 60 -60c0 -32 -26 -60 -60 -60z" />
    <glyph glyph-name="dotaccent" unicode="&#x2d9;" horiz-adv-x="76" 
d="M141 451c-38 0 -70 32 -70 70c0 39 32 70 70 70c39 0 71 -31 71 -70c0 -38 -32 -70 -71 -70z" />
    <glyph glyph-name="grave" unicode="`" horiz-adv-x="77" 
d="M222 451h-84l-125 149h121z" />
    <glyph glyph-name="hungarumlaut" unicode="&#x2dd;" horiz-adv-x="77" 
d="M30 451l88 149h121l-125 -149h-84z" />
    <glyph glyph-name="macron" unicode="&#xaf;" horiz-adv-x="47" 
d="M27 464v80h241v-80h-241z" />
    <glyph glyph-name="ogonek" unicode="&#x2db;" horiz-adv-x="70" 
d="M161 -207c-65 5 -101 48 -101 101c0 64 58 100 123 124l58 -18c-61 -29 -103 -49 -103 -95c0 -33 17 -50 44 -50c26 0 51 16 66 43l40 -56c-33 -34 -81 -52 -127 -49z" />
    <glyph glyph-name="ring" unicode="&#x2da;" horiz-adv-x="63" 
d="M88 432c-54 0 -98 44 -98 98c0 53 44 96 98 96c53 0 96 -43 96 -96c0 -54 -43 -98 -96 -98zM88 484c25 0 45 18 45 46c0 24 -20 46 -45 46c-26 0 -44 -22 -44 -46c0 -28 18 -46 44 -46z" />
    <glyph glyph-name="tilde" unicode="&#x2dc;" horiz-adv-x="48" 
d="M210 473c-33 0 -59 15 -81 47c-6 9 -11 12 -18 12c-17 0 -23 -23 -23 -54h-76c0 75 36 128 96 128c38 0 65 -22 83 -47c4 -8 9 -13 17 -13c18 0 23 21 23 54h76c0 -72 -32 -127 -97 -127z" />
    </font>
</defs>
</svg>
